<?xml version="1.0" encoding="utf-8" standalone="no"?>
<!DOCTYPE svg PUBLIC "-//W3C//DTD SVG 1.1//EN"
  "http://www.w3.org/Graphics/SVG/1.1/DTD/svg11.dtd">
<!-- Created with matplotlib (https://matplotlib.org/) -->
<svg height="520.373pt" version="1.1" viewBox="0 0 899.265 520.373" width="899.265pt" xmlns="http://www.w3.org/2000/svg" xmlns:xlink="http://www.w3.org/1999/xlink">
 <defs>
  <style type="text/css">
*{stroke-linecap:butt;stroke-linejoin:round;}
  </style>
 </defs>
 <g id="figure_1">
  <g id="patch_1">
   <path d="M 0 520.373 
L 899.265 520.373 
L 899.265 0 
L 0 0 
z
" style="fill:#ffffff;"/>
  </g>
  <g id="axes_1">
   <g id="patch_2">
    <path d="M 51.565 463.503 
L 888.565 463.503 
L 888.565 28.623 
L 51.565 28.623 
z
" style="fill:#ffffff;"/>
   </g>
   <g id="matplotlib.axis_1">
    <g id="xtick_1">
     <g id="line2d_1">
      <defs>
       <path d="M 0 0 
L 0 3.5 
" id="m6a20cb1671" style="stroke:#000000;stroke-width:1.6;"/>
      </defs>
      <g>
       <use style="stroke:#000000;stroke-width:1.6;" x="57.905909" xlink:href="#m6a20cb1671" y="463.503"/>
      </g>
     </g>
     <g id="text_1">
      <!-- 0.0 -->
      <defs>
       <path d="M 31.78125 66.40625 
Q 24.171875 66.40625 20.328125 58.90625 
Q 16.5 51.421875 16.5 36.375 
Q 16.5 21.390625 20.328125 13.890625 
Q 24.171875 6.390625 31.78125 6.390625 
Q 39.453125 6.390625 43.28125 13.890625 
Q 47.125 21.390625 47.125 36.375 
Q 47.125 51.421875 43.28125 58.90625 
Q 39.453125 66.40625 31.78125 66.40625 
z
M 31.78125 74.21875 
Q 44.046875 74.21875 50.515625 64.515625 
Q 56.984375 54.828125 56.984375 36.375 
Q 56.984375 17.96875 50.515625 8.265625 
Q 44.046875 -1.421875 31.78125 -1.421875 
Q 19.53125 -1.421875 13.0625 8.265625 
Q 6.59375 17.96875 6.59375 36.375 
Q 6.59375 54.828125 13.0625 64.515625 
Q 19.53125 74.21875 31.78125 74.21875 
z
" id="DejaVuSans-48"/>
       <path d="M 10.6875 12.40625 
L 21 12.40625 
L 21 0 
L 10.6875 0 
z
" id="DejaVuSans-46"/>
      </defs>
      <g transform="translate(45.183409 490.3605)scale(0.16 -0.16)">
       <use xlink:href="#DejaVuSans-48"/>
       <use x="63.623047" xlink:href="#DejaVuSans-46"/>
       <use x="95.410156" xlink:href="#DejaVuSans-48"/>
      </g>
     </g>
    </g>
    <g id="xtick_2">
     <g id="line2d_2">
      <g>
       <use style="stroke:#000000;stroke-width:1.6;" x="216.428636" xlink:href="#m6a20cb1671" y="463.503"/>
      </g>
     </g>
     <g id="text_2">
      <!-- 0.5 -->
      <defs>
       <path d="M 10.796875 72.90625 
L 49.515625 72.90625 
L 49.515625 64.59375 
L 19.828125 64.59375 
L 19.828125 46.734375 
Q 21.96875 47.46875 24.109375 47.828125 
Q 26.265625 48.1875 28.421875 48.1875 
Q 40.625 48.1875 47.75 41.5 
Q 54.890625 34.8125 54.890625 23.390625 
Q 54.890625 11.625 47.5625 5.09375 
Q 40.234375 -1.421875 26.90625 -1.421875 
Q 22.3125 -1.421875 17.546875 -0.640625 
Q 12.796875 0.140625 7.71875 1.703125 
L 7.71875 11.625 
Q 12.109375 9.234375 16.796875 8.0625 
Q 21.484375 6.890625 26.703125 6.890625 
Q 35.15625 6.890625 40.078125 11.328125 
Q 45.015625 15.765625 45.015625 23.390625 
Q 45.015625 31 40.078125 35.4375 
Q 35.15625 39.890625 26.703125 39.890625 
Q 22.75 39.890625 18.8125 39.015625 
Q 14.890625 38.140625 10.796875 36.28125 
z
" id="DejaVuSans-53"/>
      </defs>
      <g transform="translate(203.706136 490.3605)scale(0.16 -0.16)">
       <use xlink:href="#DejaVuSans-48"/>
       <use x="63.623047" xlink:href="#DejaVuSans-46"/>
       <use x="95.410156" xlink:href="#DejaVuSans-53"/>
      </g>
     </g>
    </g>
    <g id="xtick_3">
     <g id="line2d_3">
      <g>
       <use style="stroke:#000000;stroke-width:1.6;" x="374.951364" xlink:href="#m6a20cb1671" y="463.503"/>
      </g>
     </g>
     <g id="text_3">
      <!-- 1.0 -->
      <defs>
       <path d="M 12.40625 8.296875 
L 28.515625 8.296875 
L 28.515625 63.921875 
L 10.984375 60.40625 
L 10.984375 69.390625 
L 28.421875 72.90625 
L 38.28125 72.90625 
L 38.28125 8.296875 
L 54.390625 8.296875 
L 54.390625 0 
L 12.40625 0 
z
" id="DejaVuSans-49"/>
      </defs>
      <g transform="translate(362.228864 490.3605)scale(0.16 -0.16)">
       <use xlink:href="#DejaVuSans-49"/>
       <use x="63.623047" xlink:href="#DejaVuSans-46"/>
       <use x="95.410156" xlink:href="#DejaVuSans-48"/>
      </g>
     </g>
    </g>
    <g id="xtick_4">
     <g id="line2d_4">
      <g>
       <use style="stroke:#000000;stroke-width:1.6;" x="533.474091" xlink:href="#m6a20cb1671" y="463.503"/>
      </g>
     </g>
     <g id="text_4">
      <!-- 1.5 -->
      <g transform="translate(520.751591 490.3605)scale(0.16 -0.16)">
       <use xlink:href="#DejaVuSans-49"/>
       <use x="63.623047" xlink:href="#DejaVuSans-46"/>
       <use x="95.410156" xlink:href="#DejaVuSans-53"/>
      </g>
     </g>
    </g>
    <g id="xtick_5">
     <g id="line2d_5">
      <g>
       <use style="stroke:#000000;stroke-width:1.6;" x="691.996818" xlink:href="#m6a20cb1671" y="463.503"/>
      </g>
     </g>
     <g id="text_5">
      <!-- 2.0 -->
      <defs>
       <path d="M 19.1875 8.296875 
L 53.609375 8.296875 
L 53.609375 0 
L 7.328125 0 
L 7.328125 8.296875 
Q 12.9375 14.109375 22.625 23.890625 
Q 32.328125 33.6875 34.8125 36.53125 
Q 39.546875 41.84375 41.421875 45.53125 
Q 43.3125 49.21875 43.3125 52.78125 
Q 43.3125 58.59375 39.234375 62.25 
Q 35.15625 65.921875 28.609375 65.921875 
Q 23.96875 65.921875 18.8125 64.3125 
Q 13.671875 62.703125 7.8125 59.421875 
L 7.8125 69.390625 
Q 13.765625 71.78125 18.9375 73 
Q 24.125 74.21875 28.421875 74.21875 
Q 39.75 74.21875 46.484375 68.546875 
Q 53.21875 62.890625 53.21875 53.421875 
Q 53.21875 48.921875 51.53125 44.890625 
Q 49.859375 40.875 45.40625 35.40625 
Q 44.1875 33.984375 37.640625 27.21875 
Q 31.109375 20.453125 19.1875 8.296875 
z
" id="DejaVuSans-50"/>
      </defs>
      <g transform="translate(679.274318 490.3605)scale(0.16 -0.16)">
       <use xlink:href="#DejaVuSans-50"/>
       <use x="63.623047" xlink:href="#DejaVuSans-46"/>
       <use x="95.410156" xlink:href="#DejaVuSans-48"/>
      </g>
     </g>
    </g>
    <g id="xtick_6">
     <g id="line2d_6">
      <g>
       <use style="stroke:#000000;stroke-width:1.6;" x="850.519545" xlink:href="#m6a20cb1671" y="463.503"/>
      </g>
     </g>
     <g id="text_6">
      <!-- 2.5 -->
      <g transform="translate(837.797045 490.3605)scale(0.16 -0.16)">
       <use xlink:href="#DejaVuSans-50"/>
       <use x="63.623047" xlink:href="#DejaVuSans-46"/>
       <use x="95.410156" xlink:href="#DejaVuSans-53"/>
      </g>
     </g>
    </g>
    <g id="text_7">
     <!-- $T$ -->
     <defs>
      <path d="M 5.90625 72.90625 
L 67.578125 72.90625 
L 66.015625 64.59375 
L 39.984375 64.59375 
L 27.484375 0 
L 17.578125 0 
L 30.078125 64.59375 
L 4.296875 64.59375 
z
" id="DejaVuSans-Oblique-84"/>
     </defs>
     <g transform="translate(465.105 509.8455)scale(0.16 -0.16)">
      <use transform="translate(0 0.09375)" xlink:href="#DejaVuSans-Oblique-84"/>
     </g>
    </g>
   </g>
   <g id="matplotlib.axis_2">
    <g id="ytick_1">
     <g id="line2d_7">
      <defs>
       <path d="M 0 0 
L -3.5 0 
" id="m439e44f9bf" style="stroke:#000000;stroke-width:1.6;"/>
      </defs>
      <g>
       <use style="stroke:#000000;stroke-width:1.6;" x="51.565" xlink:href="#m439e44f9bf" y="443.922545"/>
      </g>
     </g>
     <g id="text_8">
      <!-- 0 -->
      <g transform="translate(26.685 450.001295)scale(0.16 -0.16)">
       <use xlink:href="#DejaVuSans-48"/>
      </g>
     </g>
    </g>
    <g id="ytick_2">
     <g id="line2d_8">
      <g>
       <use style="stroke:#000000;stroke-width:1.6;" x="51.565" xlink:href="#m439e44f9bf" y="374.96462"/>
      </g>
     </g>
     <g id="text_9">
      <!-- 1 -->
      <g transform="translate(26.685 381.04337)scale(0.16 -0.16)">
       <use xlink:href="#DejaVuSans-49"/>
      </g>
     </g>
    </g>
    <g id="ytick_3">
     <g id="line2d_9">
      <g>
       <use style="stroke:#000000;stroke-width:1.6;" x="51.565" xlink:href="#m439e44f9bf" y="306.006695"/>
      </g>
     </g>
     <g id="text_10">
      <!-- 2 -->
      <g transform="translate(26.685 312.085445)scale(0.16 -0.16)">
       <use xlink:href="#DejaVuSans-50"/>
      </g>
     </g>
    </g>
    <g id="ytick_4">
     <g id="line2d_10">
      <g>
       <use style="stroke:#000000;stroke-width:1.6;" x="51.565" xlink:href="#m439e44f9bf" y="237.04877"/>
      </g>
     </g>
     <g id="text_11">
      <!-- 3 -->
      <defs>
       <path d="M 40.578125 39.3125 
Q 47.65625 37.796875 51.625 33 
Q 55.609375 28.21875 55.609375 21.1875 
Q 55.609375 10.40625 48.1875 4.484375 
Q 40.765625 -1.421875 27.09375 -1.421875 
Q 22.515625 -1.421875 17.65625 -0.515625 
Q 12.796875 0.390625 7.625 2.203125 
L 7.625 11.71875 
Q 11.71875 9.328125 16.59375 8.109375 
Q 21.484375 6.890625 26.8125 6.890625 
Q 36.078125 6.890625 40.9375 10.546875 
Q 45.796875 14.203125 45.796875 21.1875 
Q 45.796875 27.640625 41.28125 31.265625 
Q 36.765625 34.90625 28.71875 34.90625 
L 20.21875 34.90625 
L 20.21875 43.015625 
L 29.109375 43.015625 
Q 36.375 43.015625 40.234375 45.921875 
Q 44.09375 48.828125 44.09375 54.296875 
Q 44.09375 59.90625 40.109375 62.90625 
Q 36.140625 65.921875 28.71875 65.921875 
Q 24.65625 65.921875 20.015625 65.03125 
Q 15.375 64.15625 9.8125 62.3125 
L 9.8125 71.09375 
Q 15.4375 72.65625 20.34375 73.4375 
Q 25.25 74.21875 29.59375 74.21875 
Q 40.828125 74.21875 47.359375 69.109375 
Q 53.90625 64.015625 53.90625 55.328125 
Q 53.90625 49.265625 50.4375 45.09375 
Q 46.96875 40.921875 40.578125 39.3125 
z
" id="DejaVuSans-51"/>
      </defs>
      <g transform="translate(26.685 243.12752)scale(0.16 -0.16)">
       <use xlink:href="#DejaVuSans-51"/>
      </g>
     </g>
    </g>
    <g id="ytick_5">
     <g id="line2d_11">
      <g>
       <use style="stroke:#000000;stroke-width:1.6;" x="51.565" xlink:href="#m439e44f9bf" y="168.090844"/>
      </g>
     </g>
     <g id="text_12">
      <!-- 4 -->
      <defs>
       <path d="M 37.796875 64.3125 
L 12.890625 25.390625 
L 37.796875 25.390625 
z
M 35.203125 72.90625 
L 47.609375 72.90625 
L 47.609375 25.390625 
L 58.015625 25.390625 
L 58.015625 17.1875 
L 47.609375 17.1875 
L 47.609375 0 
L 37.796875 0 
L 37.796875 17.1875 
L 4.890625 17.1875 
L 4.890625 26.703125 
z
" id="DejaVuSans-52"/>
      </defs>
      <g transform="translate(26.685 174.169594)scale(0.16 -0.16)">
       <use xlink:href="#DejaVuSans-52"/>
      </g>
     </g>
    </g>
    <g id="ytick_6">
     <g id="line2d_12">
      <g>
       <use style="stroke:#000000;stroke-width:1.6;" x="51.565" xlink:href="#m439e44f9bf" y="99.132919"/>
      </g>
     </g>
     <g id="text_13">
      <!-- 5 -->
      <g transform="translate(26.685 105.211669)scale(0.16 -0.16)">
       <use xlink:href="#DejaVuSans-53"/>
      </g>
     </g>
    </g>
    <g id="ytick_7">
     <g id="line2d_13">
      <g>
       <use style="stroke:#000000;stroke-width:1.6;" x="51.565" xlink:href="#m439e44f9bf" y="30.174994"/>
      </g>
     </g>
     <g id="text_14">
      <!-- 6 -->
      <defs>
       <path d="M 33.015625 40.375 
Q 26.375 40.375 22.484375 35.828125 
Q 18.609375 31.296875 18.609375 23.390625 
Q 18.609375 15.53125 22.484375 10.953125 
Q 26.375 6.390625 33.015625 6.390625 
Q 39.65625 6.390625 43.53125 10.953125 
Q 47.40625 15.53125 47.40625 23.390625 
Q 47.40625 31.296875 43.53125 35.828125 
Q 39.65625 40.375 33.015625 40.375 
z
M 52.59375 71.296875 
L 52.59375 62.3125 
Q 48.875 64.0625 45.09375 64.984375 
Q 41.3125 65.921875 37.59375 65.921875 
Q 27.828125 65.921875 22.671875 59.328125 
Q 17.53125 52.734375 16.796875 39.40625 
Q 19.671875 43.65625 24.015625 45.921875 
Q 28.375 48.1875 33.59375 48.1875 
Q 44.578125 48.1875 50.953125 41.515625 
Q 57.328125 34.859375 57.328125 23.390625 
Q 57.328125 12.15625 50.6875 5.359375 
Q 44.046875 -1.421875 33.015625 -1.421875 
Q 20.359375 -1.421875 13.671875 8.265625 
Q 6.984375 17.96875 6.984375 36.375 
Q 6.984375 53.65625 15.1875 63.9375 
Q 23.390625 74.21875 37.203125 74.21875 
Q 40.921875 74.21875 44.703125 73.484375 
Q 48.484375 72.75 52.59375 71.296875 
z
" id="DejaVuSans-54"/>
      </defs>
      <g transform="translate(26.685 36.253744)scale(0.16 -0.16)">
       <use xlink:href="#DejaVuSans-54"/>
      </g>
     </g>
    </g>
    <g id="text_15">
     <!-- $Chi$ -->
     <defs>
      <path d="M 69.484375 67.28125 
L 67.484375 56.890625 
Q 62.796875 61.625 57.546875 63.921875 
Q 52.296875 66.21875 46.1875 66.21875 
Q 37.84375 66.21875 31.515625 62.203125 
Q 25.203125 58.203125 20.609375 50 
Q 17.671875 44.734375 16.125 38.84375 
Q 14.59375 32.953125 14.59375 27 
Q 14.59375 17.046875 19.75 11.8125 
Q 24.90625 6.59375 34.71875 6.59375 
Q 41.5 6.59375 47.75 8.765625 
Q 54 10.9375 59.90625 15.28125 
L 57.625 3.609375 
Q 51.8125 1.125 45.875 -0.140625 
Q 39.9375 -1.421875 33.984375 -1.421875 
Q 19.96875 -1.421875 12.078125 6.1875 
Q 4.203125 13.8125 4.203125 27.390625 
Q 4.203125 36.078125 7.203125 44.46875 
Q 10.203125 52.875 15.828125 59.8125 
Q 21.78125 67.1875 29.421875 70.703125 
Q 37.0625 74.21875 47.21875 74.21875 
Q 53.46875 74.21875 59.0625 72.484375 
Q 64.65625 70.75 69.484375 67.28125 
z
" id="DejaVuSans-Oblique-67"/>
      <path d="M 55.71875 33.015625 
L 49.3125 0 
L 40.28125 0 
L 46.6875 32.671875 
Q 47.125 34.96875 47.359375 36.71875 
Q 47.609375 38.484375 47.609375 39.5 
Q 47.609375 43.609375 45.015625 45.890625 
Q 42.4375 48.1875 37.796875 48.1875 
Q 30.5625 48.1875 25.265625 43.296875 
Q 19.96875 38.421875 18.40625 30.328125 
L 12.5 0 
L 3.515625 0 
L 18.3125 75.984375 
L 27.296875 75.984375 
L 21.484375 46.09375 
Q 24.90625 50.6875 30.21875 53.34375 
Q 35.546875 56 41.40625 56 
Q 48.640625 56 52.609375 52.09375 
Q 56.59375 48.1875 56.59375 41.109375 
Q 56.59375 39.359375 56.375 37.359375 
Q 56.15625 35.359375 55.71875 33.015625 
z
" id="DejaVuSans-Oblique-104"/>
      <path d="M 18.3125 75.984375 
L 27.296875 75.984375 
L 25.09375 64.59375 
L 16.109375 64.59375 
z
M 14.203125 54.6875 
L 23.1875 54.6875 
L 12.5 0 
L 3.515625 0 
z
" id="DejaVuSans-Oblique-105"/>
     </defs>
     <g transform="translate(19.3575 258.943)rotate(-90)scale(0.16 -0.16)">
      <use transform="translate(0 0.015625)" xlink:href="#DejaVuSans-Oblique-67"/>
      <use transform="translate(69.824219 0.015625)" xlink:href="#DejaVuSans-Oblique-104"/>
      <use transform="translate(133.203125 0.015625)" xlink:href="#DejaVuSans-Oblique-105"/>
     </g>
    </g>
   </g>
   <g id="line2d_14">
    <defs>
     <path d="M 0 5.6 
C 1.485137 5.6 2.909647 5.009949 3.959798 3.959798 
C 5.009949 2.909647 5.6 1.485137 5.6 0 
C 5.6 -1.485137 5.009949 -2.909647 3.959798 -3.959798 
C 2.909647 -5.009949 1.485137 -5.6 0 -5.6 
C -1.485137 -5.6 -2.909647 -5.009949 -3.959798 -3.959798 
C -5.009949 -2.909647 -5.6 -1.485137 -5.6 0 
C -5.6 1.485137 -5.009949 2.909647 -3.959798 3.959798 
C -2.909647 5.009949 -1.485137 5.6 0 5.6 
z
" id="m1ad19a97e4" style="stroke:#1f77b4;"/>
    </defs>
    <g clip-path="url(#pad07dc439d)">
     <use style="fill-opacity:0;stroke:#1f77b4;" x="89.610455" xlink:href="#m1ad19a97e4" y="441.872198"/>
     <use style="fill-opacity:0;stroke:#1f77b4;" x="121.315" xlink:href="#m1ad19a97e4" y="443.215421"/>
     <use style="fill-opacity:0;stroke:#1f77b4;" x="153.019545" xlink:href="#m1ad19a97e4" y="443.369306"/>
     <use style="fill-opacity:0;stroke:#1f77b4;" x="184.724091" xlink:href="#m1ad19a97e4" y="443.294384"/>
     <use style="fill-opacity:0;stroke:#1f77b4;" x="216.428636" xlink:href="#m1ad19a97e4" y="443.141039"/>
     <use style="fill-opacity:0;stroke:#1f77b4;" x="248.133182" xlink:href="#m1ad19a97e4" y="442.971191"/>
     <use style="fill-opacity:0;stroke:#1f77b4;" x="279.837727" xlink:href="#m1ad19a97e4" y="442.663833"/>
     <use style="fill-opacity:0;stroke:#1f77b4;" x="311.542273" xlink:href="#m1ad19a97e4" y="442.288153"/>
     <use style="fill-opacity:0;stroke:#1f77b4;" x="343.246818" xlink:href="#m1ad19a97e4" y="441.359167"/>
     <use style="fill-opacity:0;stroke:#1f77b4;" x="374.951364" xlink:href="#m1ad19a97e4" y="440.051068"/>
     <use style="fill-opacity:0;stroke:#1f77b4;" x="406.655909" xlink:href="#m1ad19a97e4" y="434.361147"/>
     <use style="fill-opacity:0;stroke:#1f77b4;" x="438.360455" xlink:href="#m1ad19a97e4" y="429.897424"/>
     <use style="fill-opacity:0;stroke:#1f77b4;" x="470.065" xlink:href="#m1ad19a97e4" y="429.722011"/>
     <use style="fill-opacity:0;stroke:#1f77b4;" x="501.769545" xlink:href="#m1ad19a97e4" y="431.394861"/>
     <use style="fill-opacity:0;stroke:#1f77b4;" x="533.474091" xlink:href="#m1ad19a97e4" y="434.395971"/>
     <use style="fill-opacity:0;stroke:#1f77b4;" x="565.178636" xlink:href="#m1ad19a97e4" y="436.467361"/>
     <use style="fill-opacity:0;stroke:#1f77b4;" x="596.883182" xlink:href="#m1ad19a97e4" y="438.242923"/>
     <use style="fill-opacity:0;stroke:#1f77b4;" x="628.587727" xlink:href="#m1ad19a97e4" y="439.013873"/>
     <use style="fill-opacity:0;stroke:#1f77b4;" x="660.292273" xlink:href="#m1ad19a97e4" y="439.936787"/>
     <use style="fill-opacity:0;stroke:#1f77b4;" x="691.996818" xlink:href="#m1ad19a97e4" y="440.725449"/>
     <use style="fill-opacity:0;stroke:#1f77b4;" x="723.701364" xlink:href="#m1ad19a97e4" y="440.970905"/>
     <use style="fill-opacity:0;stroke:#1f77b4;" x="755.405909" xlink:href="#m1ad19a97e4" y="441.350565"/>
     <use style="fill-opacity:0;stroke:#1f77b4;" x="787.110455" xlink:href="#m1ad19a97e4" y="441.703221"/>
     <use style="fill-opacity:0;stroke:#1f77b4;" x="818.815" xlink:href="#m1ad19a97e4" y="442.039485"/>
     <use style="fill-opacity:0;stroke:#1f77b4;" x="850.519545" xlink:href="#m1ad19a97e4" y="442.05376"/>
    </g>
   </g>
   <g id="line2d_15">
    <defs>
     <path d="M 0 -5.6 
L -5.6 5.6 
L 5.6 5.6 
z
" id="m0b414b677a" style="stroke:#ff7f0e;stroke-linejoin:miter;"/>
    </defs>
    <g clip-path="url(#pad07dc439d)">
     <use style="fill-opacity:0;stroke:#ff7f0e;stroke-linejoin:miter;" x="89.610455" xlink:href="#m0b414b677a" y="428.397186"/>
     <use style="fill-opacity:0;stroke:#ff7f0e;stroke-linejoin:miter;" x="121.315" xlink:href="#m0b414b677a" y="440.742182"/>
     <use style="fill-opacity:0;stroke:#ff7f0e;stroke-linejoin:miter;" x="153.019545" xlink:href="#m0b414b677a" y="441.479399"/>
     <use style="fill-opacity:0;stroke:#ff7f0e;stroke-linejoin:miter;" x="184.724091" xlink:href="#m0b414b677a" y="442.231649"/>
     <use style="fill-opacity:0;stroke:#ff7f0e;stroke-linejoin:miter;" x="216.428636" xlink:href="#m0b414b677a" y="441.912497"/>
     <use style="fill-opacity:0;stroke:#ff7f0e;stroke-linejoin:miter;" x="248.133182" xlink:href="#m0b414b677a" y="441.688704"/>
     <use style="fill-opacity:0;stroke:#ff7f0e;stroke-linejoin:miter;" x="279.837727" xlink:href="#m0b414b677a" y="440.969531"/>
     <use style="fill-opacity:0;stroke:#ff7f0e;stroke-linejoin:miter;" x="311.542273" xlink:href="#m0b414b677a" y="440.342915"/>
     <use style="fill-opacity:0;stroke:#ff7f0e;stroke-linejoin:miter;" x="343.246818" xlink:href="#m0b414b677a" y="438.421722"/>
     <use style="fill-opacity:0;stroke:#ff7f0e;stroke-linejoin:miter;" x="374.951364" xlink:href="#m0b414b677a" y="409.780963"/>
     <use style="fill-opacity:0;stroke:#ff7f0e;stroke-linejoin:miter;" x="406.655909" xlink:href="#m0b414b677a" y="413.014264"/>
     <use style="fill-opacity:0;stroke:#ff7f0e;stroke-linejoin:miter;" x="438.360455" xlink:href="#m0b414b677a" y="423.963201"/>
     <use style="fill-opacity:0;stroke:#ff7f0e;stroke-linejoin:miter;" x="470.065" xlink:href="#m0b414b677a" y="434.190633"/>
     <use style="fill-opacity:0;stroke:#ff7f0e;stroke-linejoin:miter;" x="501.769545" xlink:href="#m0b414b677a" y="438.119208"/>
     <use style="fill-opacity:0;stroke:#ff7f0e;stroke-linejoin:miter;" x="533.474091" xlink:href="#m0b414b677a" y="440.106831"/>
     <use style="fill-opacity:0;stroke:#ff7f0e;stroke-linejoin:miter;" x="565.178636" xlink:href="#m0b414b677a" y="441.115698"/>
     <use style="fill-opacity:0;stroke:#ff7f0e;stroke-linejoin:miter;" x="596.883182" xlink:href="#m0b414b677a" y="441.680199"/>
     <use style="fill-opacity:0;stroke:#ff7f0e;stroke-linejoin:miter;" x="628.587727" xlink:href="#m0b414b677a" y="442.219268"/>
     <use style="fill-opacity:0;stroke:#ff7f0e;stroke-linejoin:miter;" x="660.292273" xlink:href="#m0b414b677a" y="442.512754"/>
     <use style="fill-opacity:0;stroke:#ff7f0e;stroke-linejoin:miter;" x="691.996818" xlink:href="#m0b414b677a" y="442.748692"/>
     <use style="fill-opacity:0;stroke:#ff7f0e;stroke-linejoin:miter;" x="723.701364" xlink:href="#m0b414b677a" y="442.881386"/>
     <use style="fill-opacity:0;stroke:#ff7f0e;stroke-linejoin:miter;" x="755.405909" xlink:href="#m0b414b677a" y="443.020283"/>
     <use style="fill-opacity:0;stroke:#ff7f0e;stroke-linejoin:miter;" x="787.110455" xlink:href="#m0b414b677a" y="443.175448"/>
     <use style="fill-opacity:0;stroke:#ff7f0e;stroke-linejoin:miter;" x="818.815" xlink:href="#m0b414b677a" y="443.237784"/>
     <use style="fill-opacity:0;stroke:#ff7f0e;stroke-linejoin:miter;" x="850.519545" xlink:href="#m0b414b677a" y="443.309159"/>
    </g>
   </g>
   <g id="line2d_16">
    <defs>
     <path d="M -5.6 5.6 
L 5.6 5.6 
L 5.6 -5.6 
L -5.6 -5.6 
z
" id="m50fb93c108" style="stroke:#2ca02c;stroke-linejoin:miter;"/>
    </defs>
    <g clip-path="url(#pad07dc439d)">
     <use style="fill-opacity:0;stroke:#2ca02c;stroke-linejoin:miter;" x="89.610455" xlink:href="#m50fb93c108" y="353.608153"/>
     <use style="fill-opacity:0;stroke:#2ca02c;stroke-linejoin:miter;" x="121.315" xlink:href="#m50fb93c108" y="426.21212"/>
     <use style="fill-opacity:0;stroke:#2ca02c;stroke-linejoin:miter;" x="153.019545" xlink:href="#m50fb93c108" y="432.708373"/>
     <use style="fill-opacity:0;stroke:#2ca02c;stroke-linejoin:miter;" x="184.724091" xlink:href="#m50fb93c108" y="437.801139"/>
     <use style="fill-opacity:0;stroke:#2ca02c;stroke-linejoin:miter;" x="216.428636" xlink:href="#m50fb93c108" y="440.534025"/>
     <use style="fill-opacity:0;stroke:#2ca02c;stroke-linejoin:miter;" x="248.133182" xlink:href="#m50fb93c108" y="439.470283"/>
     <use style="fill-opacity:0;stroke:#2ca02c;stroke-linejoin:miter;" x="279.837727" xlink:href="#m50fb93c108" y="439.156215"/>
     <use style="fill-opacity:0;stroke:#2ca02c;stroke-linejoin:miter;" x="311.542273" xlink:href="#m50fb93c108" y="433.943344"/>
     <use style="fill-opacity:0;stroke:#2ca02c;stroke-linejoin:miter;" x="343.246818" xlink:href="#m50fb93c108" y="434.48302"/>
     <use style="fill-opacity:0;stroke:#2ca02c;stroke-linejoin:miter;" x="374.951364" xlink:href="#m50fb93c108" y="397.929751"/>
     <use style="fill-opacity:0;stroke:#2ca02c;stroke-linejoin:miter;" x="406.655909" xlink:href="#m50fb93c108" y="418.859868"/>
     <use style="fill-opacity:0;stroke:#2ca02c;stroke-linejoin:miter;" x="438.360455" xlink:href="#m50fb93c108" y="433.459599"/>
     <use style="fill-opacity:0;stroke:#2ca02c;stroke-linejoin:miter;" x="470.065" xlink:href="#m50fb93c108" y="438.696635"/>
     <use style="fill-opacity:0;stroke:#2ca02c;stroke-linejoin:miter;" x="501.769545" xlink:href="#m50fb93c108" y="440.684547"/>
     <use style="fill-opacity:0;stroke:#2ca02c;stroke-linejoin:miter;" x="533.474091" xlink:href="#m50fb93c108" y="441.83176"/>
     <use style="fill-opacity:0;stroke:#2ca02c;stroke-linejoin:miter;" x="565.178636" xlink:href="#m50fb93c108" y="442.530807"/>
     <use style="fill-opacity:0;stroke:#2ca02c;stroke-linejoin:miter;" x="596.883182" xlink:href="#m50fb93c108" y="442.850731"/>
     <use style="fill-opacity:0;stroke:#2ca02c;stroke-linejoin:miter;" x="628.587727" xlink:href="#m50fb93c108" y="443.077299"/>
     <use style="fill-opacity:0;stroke:#2ca02c;stroke-linejoin:miter;" x="660.292273" xlink:href="#m50fb93c108" y="443.207942"/>
     <use style="fill-opacity:0;stroke:#2ca02c;stroke-linejoin:miter;" x="691.996818" xlink:href="#m50fb93c108" y="443.331548"/>
     <use style="fill-opacity:0;stroke:#2ca02c;stroke-linejoin:miter;" x="723.701364" xlink:href="#m50fb93c108" y="443.433505"/>
     <use style="fill-opacity:0;stroke:#2ca02c;stroke-linejoin:miter;" x="755.405909" xlink:href="#m50fb93c108" y="443.488461"/>
     <use style="fill-opacity:0;stroke:#2ca02c;stroke-linejoin:miter;" x="787.110455" xlink:href="#m50fb93c108" y="443.534655"/>
     <use style="fill-opacity:0;stroke:#2ca02c;stroke-linejoin:miter;" x="818.815" xlink:href="#m50fb93c108" y="443.588361"/>
     <use style="fill-opacity:0;stroke:#2ca02c;stroke-linejoin:miter;" x="850.519545" xlink:href="#m50fb93c108" y="443.61604"/>
    </g>
   </g>
   <g id="line2d_17">
    <defs>
     <path d="M -1.866667 5.6 
L 1.866667 5.6 
L 1.866667 1.866667 
L 5.6 1.866667 
L 5.6 -1.866667 
L 1.866667 -1.866667 
L 1.866667 -5.6 
L -1.866667 -5.6 
L -1.866667 -1.866667 
L -5.6 -1.866667 
L -5.6 1.866667 
L -1.866667 1.866667 
z
" id="mb4e01f5693" style="stroke:#d62728;stroke-linejoin:miter;"/>
    </defs>
    <g clip-path="url(#pad07dc439d)">
     <use style="fill-opacity:0;stroke:#d62728;stroke-linejoin:miter;" x="89.610455" xlink:href="#mb4e01f5693" y="364.443717"/>
     <use style="fill-opacity:0;stroke:#d62728;stroke-linejoin:miter;" x="121.315" xlink:href="#mb4e01f5693" y="48.390273"/>
     <use style="fill-opacity:0;stroke:#d62728;stroke-linejoin:miter;" x="153.019545" xlink:href="#mb4e01f5693" y="412.869176"/>
     <use style="fill-opacity:0;stroke:#d62728;stroke-linejoin:miter;" x="184.724091" xlink:href="#mb4e01f5693" y="430.620531"/>
     <use style="fill-opacity:0;stroke:#d62728;stroke-linejoin:miter;" x="216.428636" xlink:href="#mb4e01f5693" y="110.222076"/>
     <use style="fill-opacity:0;stroke:#d62728;stroke-linejoin:miter;" x="248.133182" xlink:href="#mb4e01f5693" y="401.773137"/>
     <use style="fill-opacity:0;stroke:#d62728;stroke-linejoin:miter;" x="279.837727" xlink:href="#mb4e01f5693" y="405.298647"/>
     <use style="fill-opacity:0;stroke:#d62728;stroke-linejoin:miter;" x="311.542273" xlink:href="#mb4e01f5693" y="359.859564"/>
     <use style="fill-opacity:0;stroke:#d62728;stroke-linejoin:miter;" x="343.246818" xlink:href="#mb4e01f5693" y="391.649029"/>
     <use style="fill-opacity:0;stroke:#d62728;stroke-linejoin:miter;" x="374.951364" xlink:href="#mb4e01f5693" y="399.709082"/>
     <use style="fill-opacity:0;stroke:#d62728;stroke-linejoin:miter;" x="406.655909" xlink:href="#mb4e01f5693" y="424.962913"/>
     <use style="fill-opacity:0;stroke:#d62728;stroke-linejoin:miter;" x="438.360455" xlink:href="#mb4e01f5693" y="436.945319"/>
     <use style="fill-opacity:0;stroke:#d62728;stroke-linejoin:miter;" x="470.065" xlink:href="#mb4e01f5693" y="440.354242"/>
     <use style="fill-opacity:0;stroke:#d62728;stroke-linejoin:miter;" x="501.769545" xlink:href="#mb4e01f5693" y="442.005155"/>
     <use style="fill-opacity:0;stroke:#d62728;stroke-linejoin:miter;" x="533.474091" xlink:href="#mb4e01f5693" y="442.710777"/>
     <use style="fill-opacity:0;stroke:#d62728;stroke-linejoin:miter;" x="565.178636" xlink:href="#mb4e01f5693" y="443.074167"/>
     <use style="fill-opacity:0;stroke:#d62728;stroke-linejoin:miter;" x="596.883182" xlink:href="#mb4e01f5693" y="443.243178"/>
     <use style="fill-opacity:0;stroke:#d62728;stroke-linejoin:miter;" x="628.587727" xlink:href="#mb4e01f5693" y="443.404179"/>
     <use style="fill-opacity:0;stroke:#d62728;stroke-linejoin:miter;" x="660.292273" xlink:href="#mb4e01f5693" y="443.513245"/>
     <use style="fill-opacity:0;stroke:#d62728;stroke-linejoin:miter;" x="691.996818" xlink:href="#mb4e01f5693" y="443.561641"/>
     <use style="fill-opacity:0;stroke:#d62728;stroke-linejoin:miter;" x="723.701364" xlink:href="#mb4e01f5693" y="443.623318"/>
     <use style="fill-opacity:0;stroke:#d62728;stroke-linejoin:miter;" x="755.405909" xlink:href="#mb4e01f5693" y="443.665506"/>
     <use style="fill-opacity:0;stroke:#d62728;stroke-linejoin:miter;" x="787.110455" xlink:href="#mb4e01f5693" y="443.691223"/>
     <use style="fill-opacity:0;stroke:#d62728;stroke-linejoin:miter;" x="818.815" xlink:href="#mb4e01f5693" y="443.721472"/>
     <use style="fill-opacity:0;stroke:#d62728;stroke-linejoin:miter;" x="850.519545" xlink:href="#mb4e01f5693" y="443.735727"/>
    </g>
   </g>
   <g id="patch_3">
    <path d="M 51.565 463.503 
L 51.565 28.623 
" style="fill:none;stroke:#000000;stroke-linecap:square;stroke-linejoin:miter;stroke-width:0.8;"/>
   </g>
   <g id="patch_4">
    <path d="M 888.565 463.503 
L 888.565 28.623 
" style="fill:none;stroke:#000000;stroke-linecap:square;stroke-linejoin:miter;stroke-width:0.8;"/>
   </g>
   <g id="patch_5">
    <path d="M 51.565 463.503 
L 888.565 463.503 
" style="fill:none;stroke:#000000;stroke-linecap:square;stroke-linejoin:miter;stroke-width:0.8;"/>
   </g>
   <g id="patch_6">
    <path d="M 51.565 28.623 
L 888.565 28.623 
" style="fill:none;stroke:#000000;stroke-linecap:square;stroke-linejoin:miter;stroke-width:0.8;"/>
   </g>
   <g id="text_16">
    <!-- Wykres zależności podatności magnetycznej od temperatury -->
    <defs>
     <path d="M 3.328125 72.90625 
L 13.28125 72.90625 
L 28.609375 11.28125 
L 43.890625 72.90625 
L 54.984375 72.90625 
L 70.3125 11.28125 
L 85.59375 72.90625 
L 95.609375 72.90625 
L 77.296875 0 
L 64.890625 0 
L 49.515625 63.28125 
L 33.984375 0 
L 21.578125 0 
z
" id="DejaVuSans-87"/>
     <path d="M 32.171875 -5.078125 
Q 28.375 -14.84375 24.75 -17.8125 
Q 21.140625 -20.796875 15.09375 -20.796875 
L 7.90625 -20.796875 
L 7.90625 -13.28125 
L 13.1875 -13.28125 
Q 16.890625 -13.28125 18.9375 -11.515625 
Q 21 -9.765625 23.484375 -3.21875 
L 25.09375 0.875 
L 2.984375 54.6875 
L 12.5 54.6875 
L 29.59375 11.921875 
L 46.6875 54.6875 
L 56.203125 54.6875 
z
" id="DejaVuSans-121"/>
     <path d="M 9.078125 75.984375 
L 18.109375 75.984375 
L 18.109375 31.109375 
L 44.921875 54.6875 
L 56.390625 54.6875 
L 27.390625 29.109375 
L 57.625 0 
L 45.90625 0 
L 18.109375 26.703125 
L 18.109375 0 
L 9.078125 0 
z
" id="DejaVuSans-107"/>
     <path d="M 41.109375 46.296875 
Q 39.59375 47.171875 37.8125 47.578125 
Q 36.03125 48 33.890625 48 
Q 26.265625 48 22.1875 43.046875 
Q 18.109375 38.09375 18.109375 28.8125 
L 18.109375 0 
L 9.078125 0 
L 9.078125 54.6875 
L 18.109375 54.6875 
L 18.109375 46.1875 
Q 20.953125 51.171875 25.484375 53.578125 
Q 30.03125 56 36.53125 56 
Q 37.453125 56 38.578125 55.875 
Q 39.703125 55.765625 41.0625 55.515625 
z
" id="DejaVuSans-114"/>
     <path d="M 56.203125 29.59375 
L 56.203125 25.203125 
L 14.890625 25.203125 
Q 15.484375 15.921875 20.484375 11.0625 
Q 25.484375 6.203125 34.421875 6.203125 
Q 39.59375 6.203125 44.453125 7.46875 
Q 49.3125 8.734375 54.109375 11.28125 
L 54.109375 2.78125 
Q 49.265625 0.734375 44.1875 -0.34375 
Q 39.109375 -1.421875 33.890625 -1.421875 
Q 20.796875 -1.421875 13.15625 6.1875 
Q 5.515625 13.8125 5.515625 26.8125 
Q 5.515625 40.234375 12.765625 48.109375 
Q 20.015625 56 32.328125 56 
Q 43.359375 56 49.78125 48.890625 
Q 56.203125 41.796875 56.203125 29.59375 
z
M 47.21875 32.234375 
Q 47.125 39.59375 43.09375 43.984375 
Q 39.0625 48.390625 32.421875 48.390625 
Q 24.90625 48.390625 20.390625 44.140625 
Q 15.875 39.890625 15.1875 32.171875 
z
" id="DejaVuSans-101"/>
     <path d="M 44.28125 53.078125 
L 44.28125 44.578125 
Q 40.484375 46.53125 36.375 47.5 
Q 32.28125 48.484375 27.875 48.484375 
Q 21.1875 48.484375 17.84375 46.4375 
Q 14.5 44.390625 14.5 40.28125 
Q 14.5 37.15625 16.890625 35.375 
Q 19.28125 33.59375 26.515625 31.984375 
L 29.59375 31.296875 
Q 39.15625 29.25 43.1875 25.515625 
Q 47.21875 21.78125 47.21875 15.09375 
Q 47.21875 7.46875 41.1875 3.015625 
Q 35.15625 -1.421875 24.609375 -1.421875 
Q 20.21875 -1.421875 15.453125 -0.5625 
Q 10.6875 0.296875 5.421875 2 
L 5.421875 11.28125 
Q 10.40625 8.6875 15.234375 7.390625 
Q 20.0625 6.109375 24.8125 6.109375 
Q 31.15625 6.109375 34.5625 8.28125 
Q 37.984375 10.453125 37.984375 14.40625 
Q 37.984375 18.0625 35.515625 20.015625 
Q 33.0625 21.96875 24.703125 23.78125 
L 21.578125 24.515625 
Q 13.234375 26.265625 9.515625 29.90625 
Q 5.8125 33.546875 5.8125 39.890625 
Q 5.8125 47.609375 11.28125 51.796875 
Q 16.75 56 26.8125 56 
Q 31.78125 56 36.171875 55.265625 
Q 40.578125 54.546875 44.28125 53.078125 
z
" id="DejaVuSans-115"/>
     <path id="DejaVuSans-32"/>
     <path d="M 5.515625 54.6875 
L 48.1875 54.6875 
L 48.1875 46.484375 
L 14.40625 7.171875 
L 48.1875 7.171875 
L 48.1875 0 
L 4.296875 0 
L 4.296875 8.203125 
L 38.09375 47.515625 
L 5.515625 47.515625 
z
" id="DejaVuSans-122"/>
     <path d="M 34.28125 27.484375 
Q 23.390625 27.484375 19.1875 25 
Q 14.984375 22.515625 14.984375 16.5 
Q 14.984375 11.71875 18.140625 8.90625 
Q 21.296875 6.109375 26.703125 6.109375 
Q 34.1875 6.109375 38.703125 11.40625 
Q 43.21875 16.703125 43.21875 25.484375 
L 43.21875 27.484375 
z
M 52.203125 31.203125 
L 52.203125 0 
L 43.21875 0 
L 43.21875 8.296875 
Q 40.140625 3.328125 35.546875 0.953125 
Q 30.953125 -1.421875 24.3125 -1.421875 
Q 15.921875 -1.421875 10.953125 3.296875 
Q 6 8.015625 6 15.921875 
Q 6 25.140625 12.171875 29.828125 
Q 18.359375 34.515625 30.609375 34.515625 
L 43.21875 34.515625 
L 43.21875 35.40625 
Q 43.21875 41.609375 39.140625 45 
Q 35.0625 48.390625 27.6875 48.390625 
Q 23 48.390625 18.546875 47.265625 
Q 14.109375 46.140625 10.015625 43.890625 
L 10.015625 52.203125 
Q 14.9375 54.109375 19.578125 55.046875 
Q 24.21875 56 28.609375 56 
Q 40.484375 56 46.34375 49.84375 
Q 52.203125 43.703125 52.203125 31.203125 
z
" id="DejaVuSans-97"/>
     <path d="M 9.421875 75.984375 
L 18.40625 75.984375 
L 18.40625 0 
L 9.421875 0 
z
" id="DejaVuSans-108"/>
     <path d="M 21.53125 75.984375 
L 30.515625 75.984375 
L 30.515625 64.59375 
L 21.53125 64.59375 
z
M 26.125 56 
z
M 5.515625 54.6875 
L 48.1875 54.6875 
L 48.1875 46.484375 
L 14.40625 7.171875 
L 48.1875 7.171875 
L 48.1875 0 
L 4.296875 0 
L 4.296875 8.203125 
L 38.09375 47.515625 
L 5.515625 47.515625 
z
" id="DejaVuSans-380"/>
     <path d="M 54.890625 33.015625 
L 54.890625 0 
L 45.90625 0 
L 45.90625 32.71875 
Q 45.90625 40.484375 42.875 44.328125 
Q 39.84375 48.1875 33.796875 48.1875 
Q 26.515625 48.1875 22.3125 43.546875 
Q 18.109375 38.921875 18.109375 30.90625 
L 18.109375 0 
L 9.078125 0 
L 9.078125 54.6875 
L 18.109375 54.6875 
L 18.109375 46.1875 
Q 21.34375 51.125 25.703125 53.5625 
Q 30.078125 56 35.796875 56 
Q 45.21875 56 50.046875 50.171875 
Q 54.890625 44.34375 54.890625 33.015625 
z
" id="DejaVuSans-110"/>
     <path d="M 30.609375 48.390625 
Q 23.390625 48.390625 19.1875 42.75 
Q 14.984375 37.109375 14.984375 27.296875 
Q 14.984375 17.484375 19.15625 11.84375 
Q 23.34375 6.203125 30.609375 6.203125 
Q 37.796875 6.203125 41.984375 11.859375 
Q 46.1875 17.53125 46.1875 27.296875 
Q 46.1875 37.015625 41.984375 42.703125 
Q 37.796875 48.390625 30.609375 48.390625 
z
M 30.609375 56 
Q 42.328125 56 49.015625 48.375 
Q 55.71875 40.765625 55.71875 27.296875 
Q 55.71875 13.875 49.015625 6.21875 
Q 42.328125 -1.421875 30.609375 -1.421875 
Q 18.84375 -1.421875 12.171875 6.21875 
Q 5.515625 13.875 5.515625 27.296875 
Q 5.515625 40.765625 12.171875 48.375 
Q 18.84375 56 30.609375 56 
z
" id="DejaVuSans-111"/>
     <path d="M 35.015625 80.328125 
L 44.734375 80.328125 
L 28.8125 61.96875 
L 21.34375 61.96875 
z
M 44.28125 53.078125 
L 44.28125 44.578125 
Q 40.484375 46.53125 36.375 47.5 
Q 32.28125 48.484375 27.875 48.484375 
Q 21.1875 48.484375 17.84375 46.4375 
Q 14.5 44.390625 14.5 40.28125 
Q 14.5 37.15625 16.890625 35.375 
Q 19.28125 33.59375 26.515625 31.984375 
L 29.59375 31.296875 
Q 39.15625 29.25 43.1875 25.515625 
Q 47.21875 21.78125 47.21875 15.09375 
Q 47.21875 7.46875 41.1875 3.015625 
Q 35.15625 -1.421875 24.609375 -1.421875 
Q 20.21875 -1.421875 15.453125 -0.5625 
Q 10.6875 0.296875 5.421875 2 
L 5.421875 11.28125 
Q 10.40625 8.6875 15.234375 7.390625 
Q 20.0625 6.109375 24.8125 6.109375 
Q 31.15625 6.109375 34.5625 8.28125 
Q 37.984375 10.453125 37.984375 14.40625 
Q 37.984375 18.0625 35.515625 20.015625 
Q 33.0625 21.96875 24.703125 23.78125 
L 21.578125 24.515625 
Q 13.234375 26.265625 9.515625 29.90625 
Q 5.8125 33.546875 5.8125 39.890625 
Q 5.8125 47.609375 11.28125 51.796875 
Q 16.75 56 26.8125 56 
Q 31.78125 56 36.171875 55.265625 
Q 40.578125 54.546875 44.28125 53.078125 
z
" id="DejaVuSans-347"/>
     <path d="M 48.78125 52.59375 
L 48.78125 44.1875 
Q 44.96875 46.296875 41.140625 47.34375 
Q 37.3125 48.390625 33.40625 48.390625 
Q 24.65625 48.390625 19.8125 42.84375 
Q 14.984375 37.3125 14.984375 27.296875 
Q 14.984375 17.28125 19.8125 11.734375 
Q 24.65625 6.203125 33.40625 6.203125 
Q 37.3125 6.203125 41.140625 7.25 
Q 44.96875 8.296875 48.78125 10.40625 
L 48.78125 2.09375 
Q 45.015625 0.34375 40.984375 -0.53125 
Q 36.96875 -1.421875 32.421875 -1.421875 
Q 20.0625 -1.421875 12.78125 6.34375 
Q 5.515625 14.109375 5.515625 27.296875 
Q 5.515625 40.671875 12.859375 48.328125 
Q 20.21875 56 33.015625 56 
Q 37.15625 56 41.109375 55.140625 
Q 45.0625 54.296875 48.78125 52.59375 
z
" id="DejaVuSans-99"/>
     <path d="M 9.421875 54.6875 
L 18.40625 54.6875 
L 18.40625 0 
L 9.421875 0 
z
M 9.421875 75.984375 
L 18.40625 75.984375 
L 18.40625 64.59375 
L 9.421875 64.59375 
z
" id="DejaVuSans-105"/>
     <path d="M 18.109375 8.203125 
L 18.109375 -20.796875 
L 9.078125 -20.796875 
L 9.078125 54.6875 
L 18.109375 54.6875 
L 18.109375 46.390625 
Q 20.953125 51.265625 25.265625 53.625 
Q 29.59375 56 35.59375 56 
Q 45.5625 56 51.78125 48.09375 
Q 58.015625 40.1875 58.015625 27.296875 
Q 58.015625 14.40625 51.78125 6.484375 
Q 45.5625 -1.421875 35.59375 -1.421875 
Q 29.59375 -1.421875 25.265625 0.953125 
Q 20.953125 3.328125 18.109375 8.203125 
z
M 48.6875 27.296875 
Q 48.6875 37.203125 44.609375 42.84375 
Q 40.53125 48.484375 33.40625 48.484375 
Q 26.265625 48.484375 22.1875 42.84375 
Q 18.109375 37.203125 18.109375 27.296875 
Q 18.109375 17.390625 22.1875 11.75 
Q 26.265625 6.109375 33.40625 6.109375 
Q 40.53125 6.109375 44.609375 11.75 
Q 48.6875 17.390625 48.6875 27.296875 
z
" id="DejaVuSans-112"/>
     <path d="M 45.40625 46.390625 
L 45.40625 75.984375 
L 54.390625 75.984375 
L 54.390625 0 
L 45.40625 0 
L 45.40625 8.203125 
Q 42.578125 3.328125 38.25 0.953125 
Q 33.9375 -1.421875 27.875 -1.421875 
Q 17.96875 -1.421875 11.734375 6.484375 
Q 5.515625 14.40625 5.515625 27.296875 
Q 5.515625 40.1875 11.734375 48.09375 
Q 17.96875 56 27.875 56 
Q 33.9375 56 38.25 53.625 
Q 42.578125 51.265625 45.40625 46.390625 
z
M 14.796875 27.296875 
Q 14.796875 17.390625 18.875 11.75 
Q 22.953125 6.109375 30.078125 6.109375 
Q 37.203125 6.109375 41.296875 11.75 
Q 45.40625 17.390625 45.40625 27.296875 
Q 45.40625 37.203125 41.296875 42.84375 
Q 37.203125 48.484375 30.078125 48.484375 
Q 22.953125 48.484375 18.875 42.84375 
Q 14.796875 37.203125 14.796875 27.296875 
z
" id="DejaVuSans-100"/>
     <path d="M 18.3125 70.21875 
L 18.3125 54.6875 
L 36.8125 54.6875 
L 36.8125 47.703125 
L 18.3125 47.703125 
L 18.3125 18.015625 
Q 18.3125 11.328125 20.140625 9.421875 
Q 21.96875 7.515625 27.59375 7.515625 
L 36.8125 7.515625 
L 36.8125 0 
L 27.59375 0 
Q 17.1875 0 13.234375 3.875 
Q 9.28125 7.765625 9.28125 18.015625 
L 9.28125 47.703125 
L 2.6875 47.703125 
L 2.6875 54.6875 
L 9.28125 54.6875 
L 9.28125 70.21875 
z
" id="DejaVuSans-116"/>
     <path d="M 52 44.1875 
Q 55.375 50.25 60.0625 53.125 
Q 64.75 56 71.09375 56 
Q 79.640625 56 84.28125 50.015625 
Q 88.921875 44.046875 88.921875 33.015625 
L 88.921875 0 
L 79.890625 0 
L 79.890625 32.71875 
Q 79.890625 40.578125 77.09375 44.375 
Q 74.3125 48.1875 68.609375 48.1875 
Q 61.625 48.1875 57.5625 43.546875 
Q 53.515625 38.921875 53.515625 30.90625 
L 53.515625 0 
L 44.484375 0 
L 44.484375 32.71875 
Q 44.484375 40.625 41.703125 44.40625 
Q 38.921875 48.1875 33.109375 48.1875 
Q 26.21875 48.1875 22.15625 43.53125 
Q 18.109375 38.875 18.109375 30.90625 
L 18.109375 0 
L 9.078125 0 
L 9.078125 54.6875 
L 18.109375 54.6875 
L 18.109375 46.1875 
Q 21.1875 51.21875 25.484375 53.609375 
Q 29.78125 56 35.6875 56 
Q 41.65625 56 45.828125 52.96875 
Q 50 49.953125 52 44.1875 
z
" id="DejaVuSans-109"/>
     <path d="M 45.40625 27.984375 
Q 45.40625 37.75 41.375 43.109375 
Q 37.359375 48.484375 30.078125 48.484375 
Q 22.859375 48.484375 18.828125 43.109375 
Q 14.796875 37.75 14.796875 27.984375 
Q 14.796875 18.265625 18.828125 12.890625 
Q 22.859375 7.515625 30.078125 7.515625 
Q 37.359375 7.515625 41.375 12.890625 
Q 45.40625 18.265625 45.40625 27.984375 
z
M 54.390625 6.78125 
Q 54.390625 -7.171875 48.1875 -13.984375 
Q 42 -20.796875 29.203125 -20.796875 
Q 24.46875 -20.796875 20.265625 -20.09375 
Q 16.0625 -19.390625 12.109375 -17.921875 
L 12.109375 -9.1875 
Q 16.0625 -11.328125 19.921875 -12.34375 
Q 23.78125 -13.375 27.78125 -13.375 
Q 36.625 -13.375 41.015625 -8.765625 
Q 45.40625 -4.15625 45.40625 5.171875 
L 45.40625 9.625 
Q 42.625 4.78125 38.28125 2.390625 
Q 33.9375 0 27.875 0 
Q 17.828125 0 11.671875 7.65625 
Q 5.515625 15.328125 5.515625 27.984375 
Q 5.515625 40.671875 11.671875 48.328125 
Q 17.828125 56 27.875 56 
Q 33.9375 56 38.28125 53.609375 
Q 42.625 51.21875 45.40625 46.390625 
L 45.40625 54.6875 
L 54.390625 54.6875 
z
" id="DejaVuSans-103"/>
     <path d="M 9.421875 54.6875 
L 18.40625 54.6875 
L 18.40625 -0.984375 
Q 18.40625 -11.421875 14.421875 -16.109375 
Q 10.453125 -20.796875 1.609375 -20.796875 
L -1.8125 -20.796875 
L -1.8125 -13.1875 
L 0.59375 -13.1875 
Q 5.71875 -13.1875 7.5625 -10.8125 
Q 9.421875 -8.453125 9.421875 -0.984375 
z
M 9.421875 75.984375 
L 18.40625 75.984375 
L 18.40625 64.59375 
L 9.421875 64.59375 
z
" id="DejaVuSans-106"/>
     <path d="M 8.5 21.578125 
L 8.5 54.6875 
L 17.484375 54.6875 
L 17.484375 21.921875 
Q 17.484375 14.15625 20.5 10.265625 
Q 23.53125 6.390625 29.59375 6.390625 
Q 36.859375 6.390625 41.078125 11.03125 
Q 45.3125 15.671875 45.3125 23.6875 
L 45.3125 54.6875 
L 54.296875 54.6875 
L 54.296875 0 
L 45.3125 0 
L 45.3125 8.40625 
Q 42.046875 3.421875 37.71875 1 
Q 33.40625 -1.421875 27.6875 -1.421875 
Q 18.265625 -1.421875 13.375 4.4375 
Q 8.5 10.296875 8.5 21.578125 
z
M 31.109375 56 
z
" id="DejaVuSans-117"/>
    </defs>
    <g transform="translate(177.1375 22.623)scale(0.192 -0.192)">
     <use xlink:href="#DejaVuSans-87"/>
     <use x="98.861328" xlink:href="#DejaVuSans-121"/>
     <use x="158.041016" xlink:href="#DejaVuSans-107"/>
     <use x="215.951172" xlink:href="#DejaVuSans-114"/>
     <use x="257.033203" xlink:href="#DejaVuSans-101"/>
     <use x="318.556641" xlink:href="#DejaVuSans-115"/>
     <use x="370.65625" xlink:href="#DejaVuSans-32"/>
     <use x="402.443359" xlink:href="#DejaVuSans-122"/>
     <use x="454.933594" xlink:href="#DejaVuSans-97"/>
     <use x="516.212891" xlink:href="#DejaVuSans-108"/>
     <use x="543.996094" xlink:href="#DejaVuSans-101"/>
     <use x="605.519531" xlink:href="#DejaVuSans-380"/>
     <use x="658.009766" xlink:href="#DejaVuSans-110"/>
     <use x="721.388672" xlink:href="#DejaVuSans-111"/>
     <use x="782.570312" xlink:href="#DejaVuSans-347"/>
     <use x="834.669922" xlink:href="#DejaVuSans-99"/>
     <use x="889.650391" xlink:href="#DejaVuSans-105"/>
     <use x="917.433594" xlink:href="#DejaVuSans-32"/>
     <use x="949.220703" xlink:href="#DejaVuSans-112"/>
     <use x="1012.697266" xlink:href="#DejaVuSans-111"/>
     <use x="1073.878906" xlink:href="#DejaVuSans-100"/>
     <use x="1137.355469" xlink:href="#DejaVuSans-97"/>
     <use x="1198.634766" xlink:href="#DejaVuSans-116"/>
     <use x="1237.84375" xlink:href="#DejaVuSans-110"/>
     <use x="1301.222656" xlink:href="#DejaVuSans-111"/>
     <use x="1362.404297" xlink:href="#DejaVuSans-347"/>
     <use x="1414.503906" xlink:href="#DejaVuSans-99"/>
     <use x="1469.484375" xlink:href="#DejaVuSans-105"/>
     <use x="1497.267578" xlink:href="#DejaVuSans-32"/>
     <use x="1529.054688" xlink:href="#DejaVuSans-109"/>
     <use x="1626.466797" xlink:href="#DejaVuSans-97"/>
     <use x="1687.746094" xlink:href="#DejaVuSans-103"/>
     <use x="1751.222656" xlink:href="#DejaVuSans-110"/>
     <use x="1814.601562" xlink:href="#DejaVuSans-101"/>
     <use x="1876.125" xlink:href="#DejaVuSans-116"/>
     <use x="1915.333984" xlink:href="#DejaVuSans-121"/>
     <use x="1974.513672" xlink:href="#DejaVuSans-99"/>
     <use x="2029.494141" xlink:href="#DejaVuSans-122"/>
     <use x="2081.984375" xlink:href="#DejaVuSans-110"/>
     <use x="2145.363281" xlink:href="#DejaVuSans-101"/>
     <use x="2206.886719" xlink:href="#DejaVuSans-106"/>
     <use x="2234.669922" xlink:href="#DejaVuSans-32"/>
     <use x="2266.457031" xlink:href="#DejaVuSans-111"/>
     <use x="2327.638672" xlink:href="#DejaVuSans-100"/>
     <use x="2391.115234" xlink:href="#DejaVuSans-32"/>
     <use x="2422.902344" xlink:href="#DejaVuSans-116"/>
     <use x="2462.111328" xlink:href="#DejaVuSans-101"/>
     <use x="2523.634766" xlink:href="#DejaVuSans-109"/>
     <use x="2621.046875" xlink:href="#DejaVuSans-112"/>
     <use x="2684.523438" xlink:href="#DejaVuSans-101"/>
     <use x="2746.046875" xlink:href="#DejaVuSans-114"/>
     <use x="2787.160156" xlink:href="#DejaVuSans-97"/>
     <use x="2848.439453" xlink:href="#DejaVuSans-116"/>
     <use x="2887.648438" xlink:href="#DejaVuSans-117"/>
     <use x="2951.027344" xlink:href="#DejaVuSans-114"/>
     <use x="2992.140625" xlink:href="#DejaVuSans-121"/>
    </g>
   </g>
   <g id="legend_1">
    <g id="patch_7">
     <path d="M 773.3025 135.363 
L 877.365 135.363 
Q 880.565 135.363 880.565 132.163 
L 880.565 39.823 
Q 880.565 36.623 877.365 36.623 
L 773.3025 36.623 
Q 770.1025 36.623 770.1025 39.823 
L 770.1025 132.163 
Q 770.1025 135.363 773.3025 135.363 
z
" style="fill:#ffffff;opacity:0.8;stroke:#cccccc;stroke-linejoin:miter;stroke-width:0.48;"/>
    </g>
    <g id="line2d_18"/>
    <g id="line2d_19">
     <g>
      <use style="fill-opacity:0;stroke:#1f77b4;" x="792.5025" xlink:href="#m1ad19a97e4" y="49.5805"/>
     </g>
    </g>
    <g id="text_17">
     <!-- L=10 -->
     <defs>
      <path d="M 9.8125 72.90625 
L 19.671875 72.90625 
L 19.671875 8.296875 
L 55.171875 8.296875 
L 55.171875 0 
L 9.8125 0 
z
" id="DejaVuSans-76"/>
      <path d="M 10.59375 45.40625 
L 73.1875 45.40625 
L 73.1875 37.203125 
L 10.59375 37.203125 
z
M 10.59375 25.484375 
L 73.1875 25.484375 
L 73.1875 17.1875 
L 10.59375 17.1875 
z
" id="DejaVuSans-61"/>
     </defs>
     <g transform="translate(821.3025 55.1805)scale(0.16 -0.16)">
      <use xlink:href="#DejaVuSans-76"/>
      <use x="55.712891" xlink:href="#DejaVuSans-61"/>
      <use x="139.501953" xlink:href="#DejaVuSans-49"/>
      <use x="203.125" xlink:href="#DejaVuSans-48"/>
     </g>
    </g>
    <g id="line2d_20"/>
    <g id="line2d_21">
     <g>
      <use style="fill-opacity:0;stroke:#ff7f0e;stroke-linejoin:miter;" x="792.5025" xlink:href="#m0b414b677a" y="73.0655"/>
     </g>
    </g>
    <g id="text_18">
     <!-- L=30 -->
     <g transform="translate(821.3025 78.6655)scale(0.16 -0.16)">
      <use xlink:href="#DejaVuSans-76"/>
      <use x="55.712891" xlink:href="#DejaVuSans-61"/>
      <use x="139.501953" xlink:href="#DejaVuSans-51"/>
      <use x="203.125" xlink:href="#DejaVuSans-48"/>
     </g>
    </g>
    <g id="line2d_22"/>
    <g id="line2d_23">
     <g>
      <use style="fill-opacity:0;stroke:#2ca02c;stroke-linejoin:miter;" x="792.5025" xlink:href="#m50fb93c108" y="96.5505"/>
     </g>
    </g>
    <g id="text_19">
     <!-- L=60 -->
     <g transform="translate(821.3025 102.1505)scale(0.16 -0.16)">
      <use xlink:href="#DejaVuSans-76"/>
      <use x="55.712891" xlink:href="#DejaVuSans-61"/>
      <use x="139.501953" xlink:href="#DejaVuSans-54"/>
      <use x="203.125" xlink:href="#DejaVuSans-48"/>
     </g>
    </g>
    <g id="line2d_24"/>
    <g id="line2d_25">
     <g>
      <use style="fill-opacity:0;stroke:#d62728;stroke-linejoin:miter;" x="792.5025" xlink:href="#mb4e01f5693" y="120.0355"/>
     </g>
    </g>
    <g id="text_20">
     <!-- L=100 -->
     <g transform="translate(821.3025 125.6355)scale(0.16 -0.16)">
      <use xlink:href="#DejaVuSans-76"/>
      <use x="55.712891" xlink:href="#DejaVuSans-61"/>
      <use x="139.501953" xlink:href="#DejaVuSans-49"/>
      <use x="203.125" xlink:href="#DejaVuSans-48"/>
      <use x="266.748047" xlink:href="#DejaVuSans-48"/>
     </g>
    </g>
   </g>
  </g>
 </g>
 <defs>
  <clipPath id="pad07dc439d">
   <rect height="434.88" width="837" x="51.565" y="28.623"/>
  </clipPath>
 </defs>
</svg>
