<?xml version="1.0" encoding="utf-8" standalone="no"?>
<!DOCTYPE svg PUBLIC "-//W3C//DTD SVG 1.1//EN"
  "http://www.w3.org/Graphics/SVG/1.1/DTD/svg11.dtd">
<!-- Created with matplotlib (https://matplotlib.org/) -->
<svg height="520.373pt" version="1.1" viewBox="0 0 914.53 520.373" width="914.53pt" xmlns="http://www.w3.org/2000/svg" xmlns:xlink="http://www.w3.org/1999/xlink">
 <defs>
  <style type="text/css">
*{stroke-linecap:butt;stroke-linejoin:round;}
  </style>
 </defs>
 <g id="figure_1">
  <g id="patch_1">
   <path d="M 0 520.373 
L 914.53 520.373 
L 914.53 0 
L 0 0 
z
" style="fill:#ffffff;"/>
  </g>
  <g id="axes_1">
   <g id="patch_2">
    <path d="M 66.83 463.503 
L 903.83 463.503 
L 903.83 28.623 
L 66.83 28.623 
z
" style="fill:#ffffff;"/>
   </g>
   <g id="matplotlib.axis_1">
    <g id="xtick_1">
     <g id="line2d_1">
      <defs>
       <path d="M 0 0 
L 0 3.5 
" id="m95f484b02d" style="stroke:#000000;stroke-width:1.6;"/>
      </defs>
      <g>
       <use style="stroke:#000000;stroke-width:1.6;" x="73.170909" xlink:href="#m95f484b02d" y="463.503"/>
      </g>
     </g>
     <g id="text_1">
      <!-- 0.0 -->
      <defs>
       <path d="M 31.78125 66.40625 
Q 24.171875 66.40625 20.328125 58.90625 
Q 16.5 51.421875 16.5 36.375 
Q 16.5 21.390625 20.328125 13.890625 
Q 24.171875 6.390625 31.78125 6.390625 
Q 39.453125 6.390625 43.28125 13.890625 
Q 47.125 21.390625 47.125 36.375 
Q 47.125 51.421875 43.28125 58.90625 
Q 39.453125 66.40625 31.78125 66.40625 
z
M 31.78125 74.21875 
Q 44.046875 74.21875 50.515625 64.515625 
Q 56.984375 54.828125 56.984375 36.375 
Q 56.984375 17.96875 50.515625 8.265625 
Q 44.046875 -1.421875 31.78125 -1.421875 
Q 19.53125 -1.421875 13.0625 8.265625 
Q 6.59375 17.96875 6.59375 36.375 
Q 6.59375 54.828125 13.0625 64.515625 
Q 19.53125 74.21875 31.78125 74.21875 
z
" id="DejaVuSans-48"/>
       <path d="M 10.6875 12.40625 
L 21 12.40625 
L 21 0 
L 10.6875 0 
z
" id="DejaVuSans-46"/>
      </defs>
      <g transform="translate(60.448409 490.3605)scale(0.16 -0.16)">
       <use xlink:href="#DejaVuSans-48"/>
       <use x="63.623047" xlink:href="#DejaVuSans-46"/>
       <use x="95.410156" xlink:href="#DejaVuSans-48"/>
      </g>
     </g>
    </g>
    <g id="xtick_2">
     <g id="line2d_2">
      <g>
       <use style="stroke:#000000;stroke-width:1.6;" x="231.693636" xlink:href="#m95f484b02d" y="463.503"/>
      </g>
     </g>
     <g id="text_2">
      <!-- 0.5 -->
      <defs>
       <path d="M 10.796875 72.90625 
L 49.515625 72.90625 
L 49.515625 64.59375 
L 19.828125 64.59375 
L 19.828125 46.734375 
Q 21.96875 47.46875 24.109375 47.828125 
Q 26.265625 48.1875 28.421875 48.1875 
Q 40.625 48.1875 47.75 41.5 
Q 54.890625 34.8125 54.890625 23.390625 
Q 54.890625 11.625 47.5625 5.09375 
Q 40.234375 -1.421875 26.90625 -1.421875 
Q 22.3125 -1.421875 17.546875 -0.640625 
Q 12.796875 0.140625 7.71875 1.703125 
L 7.71875 11.625 
Q 12.109375 9.234375 16.796875 8.0625 
Q 21.484375 6.890625 26.703125 6.890625 
Q 35.15625 6.890625 40.078125 11.328125 
Q 45.015625 15.765625 45.015625 23.390625 
Q 45.015625 31 40.078125 35.4375 
Q 35.15625 39.890625 26.703125 39.890625 
Q 22.75 39.890625 18.8125 39.015625 
Q 14.890625 38.140625 10.796875 36.28125 
z
" id="DejaVuSans-53"/>
      </defs>
      <g transform="translate(218.971136 490.3605)scale(0.16 -0.16)">
       <use xlink:href="#DejaVuSans-48"/>
       <use x="63.623047" xlink:href="#DejaVuSans-46"/>
       <use x="95.410156" xlink:href="#DejaVuSans-53"/>
      </g>
     </g>
    </g>
    <g id="xtick_3">
     <g id="line2d_3">
      <g>
       <use style="stroke:#000000;stroke-width:1.6;" x="390.216364" xlink:href="#m95f484b02d" y="463.503"/>
      </g>
     </g>
     <g id="text_3">
      <!-- 1.0 -->
      <defs>
       <path d="M 12.40625 8.296875 
L 28.515625 8.296875 
L 28.515625 63.921875 
L 10.984375 60.40625 
L 10.984375 69.390625 
L 28.421875 72.90625 
L 38.28125 72.90625 
L 38.28125 8.296875 
L 54.390625 8.296875 
L 54.390625 0 
L 12.40625 0 
z
" id="DejaVuSans-49"/>
      </defs>
      <g transform="translate(377.493864 490.3605)scale(0.16 -0.16)">
       <use xlink:href="#DejaVuSans-49"/>
       <use x="63.623047" xlink:href="#DejaVuSans-46"/>
       <use x="95.410156" xlink:href="#DejaVuSans-48"/>
      </g>
     </g>
    </g>
    <g id="xtick_4">
     <g id="line2d_4">
      <g>
       <use style="stroke:#000000;stroke-width:1.6;" x="548.739091" xlink:href="#m95f484b02d" y="463.503"/>
      </g>
     </g>
     <g id="text_4">
      <!-- 1.5 -->
      <g transform="translate(536.016591 490.3605)scale(0.16 -0.16)">
       <use xlink:href="#DejaVuSans-49"/>
       <use x="63.623047" xlink:href="#DejaVuSans-46"/>
       <use x="95.410156" xlink:href="#DejaVuSans-53"/>
      </g>
     </g>
    </g>
    <g id="xtick_5">
     <g id="line2d_5">
      <g>
       <use style="stroke:#000000;stroke-width:1.6;" x="707.261818" xlink:href="#m95f484b02d" y="463.503"/>
      </g>
     </g>
     <g id="text_5">
      <!-- 2.0 -->
      <defs>
       <path d="M 19.1875 8.296875 
L 53.609375 8.296875 
L 53.609375 0 
L 7.328125 0 
L 7.328125 8.296875 
Q 12.9375 14.109375 22.625 23.890625 
Q 32.328125 33.6875 34.8125 36.53125 
Q 39.546875 41.84375 41.421875 45.53125 
Q 43.3125 49.21875 43.3125 52.78125 
Q 43.3125 58.59375 39.234375 62.25 
Q 35.15625 65.921875 28.609375 65.921875 
Q 23.96875 65.921875 18.8125 64.3125 
Q 13.671875 62.703125 7.8125 59.421875 
L 7.8125 69.390625 
Q 13.765625 71.78125 18.9375 73 
Q 24.125 74.21875 28.421875 74.21875 
Q 39.75 74.21875 46.484375 68.546875 
Q 53.21875 62.890625 53.21875 53.421875 
Q 53.21875 48.921875 51.53125 44.890625 
Q 49.859375 40.875 45.40625 35.40625 
Q 44.1875 33.984375 37.640625 27.21875 
Q 31.109375 20.453125 19.1875 8.296875 
z
" id="DejaVuSans-50"/>
      </defs>
      <g transform="translate(694.539318 490.3605)scale(0.16 -0.16)">
       <use xlink:href="#DejaVuSans-50"/>
       <use x="63.623047" xlink:href="#DejaVuSans-46"/>
       <use x="95.410156" xlink:href="#DejaVuSans-48"/>
      </g>
     </g>
    </g>
    <g id="xtick_6">
     <g id="line2d_6">
      <g>
       <use style="stroke:#000000;stroke-width:1.6;" x="865.784545" xlink:href="#m95f484b02d" y="463.503"/>
      </g>
     </g>
     <g id="text_6">
      <!-- 2.5 -->
      <g transform="translate(853.062045 490.3605)scale(0.16 -0.16)">
       <use xlink:href="#DejaVuSans-50"/>
       <use x="63.623047" xlink:href="#DejaVuSans-46"/>
       <use x="95.410156" xlink:href="#DejaVuSans-53"/>
      </g>
     </g>
    </g>
    <g id="text_7">
     <!-- $T$ -->
     <defs>
      <path d="M 5.90625 72.90625 
L 67.578125 72.90625 
L 66.015625 64.59375 
L 39.984375 64.59375 
L 27.484375 0 
L 17.578125 0 
L 30.078125 64.59375 
L 4.296875 64.59375 
z
" id="DejaVuSans-Oblique-84"/>
     </defs>
     <g transform="translate(480.37 509.8455)scale(0.16 -0.16)">
      <use transform="translate(0 0.09375)" xlink:href="#DejaVuSans-Oblique-84"/>
     </g>
    </g>
   </g>
   <g id="matplotlib.axis_2">
    <g id="ytick_1">
     <g id="line2d_7">
      <defs>
       <path d="M 0 0 
L -3.5 0 
" id="mc61b85c7ee" style="stroke:#000000;stroke-width:1.6;"/>
      </defs>
      <g>
       <use style="stroke:#000000;stroke-width:1.6;" x="66.83" xlink:href="#mc61b85c7ee" y="450.383867"/>
      </g>
     </g>
     <g id="text_8">
      <!-- 0.0 -->
      <g transform="translate(26.685 456.462617)scale(0.16 -0.16)">
       <use xlink:href="#DejaVuSans-48"/>
       <use x="63.623047" xlink:href="#DejaVuSans-46"/>
       <use x="95.410156" xlink:href="#DejaVuSans-48"/>
      </g>
     </g>
    </g>
    <g id="ytick_2">
     <g id="line2d_8">
      <g>
       <use style="stroke:#000000;stroke-width:1.6;" x="66.83" xlink:href="#mc61b85c7ee" y="365.02708"/>
      </g>
     </g>
     <g id="text_9">
      <!-- 0.2 -->
      <g transform="translate(26.685 371.10583)scale(0.16 -0.16)">
       <use xlink:href="#DejaVuSans-48"/>
       <use x="63.623047" xlink:href="#DejaVuSans-46"/>
       <use x="95.410156" xlink:href="#DejaVuSans-50"/>
      </g>
     </g>
    </g>
    <g id="ytick_3">
     <g id="line2d_9">
      <g>
       <use style="stroke:#000000;stroke-width:1.6;" x="66.83" xlink:href="#mc61b85c7ee" y="279.670293"/>
      </g>
     </g>
     <g id="text_10">
      <!-- 0.4 -->
      <defs>
       <path d="M 37.796875 64.3125 
L 12.890625 25.390625 
L 37.796875 25.390625 
z
M 35.203125 72.90625 
L 47.609375 72.90625 
L 47.609375 25.390625 
L 58.015625 25.390625 
L 58.015625 17.1875 
L 47.609375 17.1875 
L 47.609375 0 
L 37.796875 0 
L 37.796875 17.1875 
L 4.890625 17.1875 
L 4.890625 26.703125 
z
" id="DejaVuSans-52"/>
      </defs>
      <g transform="translate(26.685 285.749043)scale(0.16 -0.16)">
       <use xlink:href="#DejaVuSans-48"/>
       <use x="63.623047" xlink:href="#DejaVuSans-46"/>
       <use x="95.410156" xlink:href="#DejaVuSans-52"/>
      </g>
     </g>
    </g>
    <g id="ytick_4">
     <g id="line2d_10">
      <g>
       <use style="stroke:#000000;stroke-width:1.6;" x="66.83" xlink:href="#mc61b85c7ee" y="194.313506"/>
      </g>
     </g>
     <g id="text_11">
      <!-- 0.6 -->
      <defs>
       <path d="M 33.015625 40.375 
Q 26.375 40.375 22.484375 35.828125 
Q 18.609375 31.296875 18.609375 23.390625 
Q 18.609375 15.53125 22.484375 10.953125 
Q 26.375 6.390625 33.015625 6.390625 
Q 39.65625 6.390625 43.53125 10.953125 
Q 47.40625 15.53125 47.40625 23.390625 
Q 47.40625 31.296875 43.53125 35.828125 
Q 39.65625 40.375 33.015625 40.375 
z
M 52.59375 71.296875 
L 52.59375 62.3125 
Q 48.875 64.0625 45.09375 64.984375 
Q 41.3125 65.921875 37.59375 65.921875 
Q 27.828125 65.921875 22.671875 59.328125 
Q 17.53125 52.734375 16.796875 39.40625 
Q 19.671875 43.65625 24.015625 45.921875 
Q 28.375 48.1875 33.59375 48.1875 
Q 44.578125 48.1875 50.953125 41.515625 
Q 57.328125 34.859375 57.328125 23.390625 
Q 57.328125 12.15625 50.6875 5.359375 
Q 44.046875 -1.421875 33.015625 -1.421875 
Q 20.359375 -1.421875 13.671875 8.265625 
Q 6.984375 17.96875 6.984375 36.375 
Q 6.984375 53.65625 15.1875 63.9375 
Q 23.390625 74.21875 37.203125 74.21875 
Q 40.921875 74.21875 44.703125 73.484375 
Q 48.484375 72.75 52.59375 71.296875 
z
" id="DejaVuSans-54"/>
      </defs>
      <g transform="translate(26.685 200.392256)scale(0.16 -0.16)">
       <use xlink:href="#DejaVuSans-48"/>
       <use x="63.623047" xlink:href="#DejaVuSans-46"/>
       <use x="95.410156" xlink:href="#DejaVuSans-54"/>
      </g>
     </g>
    </g>
    <g id="ytick_5">
     <g id="line2d_11">
      <g>
       <use style="stroke:#000000;stroke-width:1.6;" x="66.83" xlink:href="#mc61b85c7ee" y="108.956719"/>
      </g>
     </g>
     <g id="text_12">
      <!-- 0.8 -->
      <defs>
       <path d="M 31.78125 34.625 
Q 24.75 34.625 20.71875 30.859375 
Q 16.703125 27.09375 16.703125 20.515625 
Q 16.703125 13.921875 20.71875 10.15625 
Q 24.75 6.390625 31.78125 6.390625 
Q 38.8125 6.390625 42.859375 10.171875 
Q 46.921875 13.96875 46.921875 20.515625 
Q 46.921875 27.09375 42.890625 30.859375 
Q 38.875 34.625 31.78125 34.625 
z
M 21.921875 38.8125 
Q 15.578125 40.375 12.03125 44.71875 
Q 8.5 49.078125 8.5 55.328125 
Q 8.5 64.0625 14.71875 69.140625 
Q 20.953125 74.21875 31.78125 74.21875 
Q 42.671875 74.21875 48.875 69.140625 
Q 55.078125 64.0625 55.078125 55.328125 
Q 55.078125 49.078125 51.53125 44.71875 
Q 48 40.375 41.703125 38.8125 
Q 48.828125 37.15625 52.796875 32.3125 
Q 56.78125 27.484375 56.78125 20.515625 
Q 56.78125 9.90625 50.3125 4.234375 
Q 43.84375 -1.421875 31.78125 -1.421875 
Q 19.734375 -1.421875 13.25 4.234375 
Q 6.78125 9.90625 6.78125 20.515625 
Q 6.78125 27.484375 10.78125 32.3125 
Q 14.796875 37.15625 21.921875 38.8125 
z
M 18.3125 54.390625 
Q 18.3125 48.734375 21.84375 45.5625 
Q 25.390625 42.390625 31.78125 42.390625 
Q 38.140625 42.390625 41.71875 45.5625 
Q 45.3125 48.734375 45.3125 54.390625 
Q 45.3125 60.0625 41.71875 63.234375 
Q 38.140625 66.40625 31.78125 66.40625 
Q 25.390625 66.40625 21.84375 63.234375 
Q 18.3125 60.0625 18.3125 54.390625 
z
" id="DejaVuSans-56"/>
      </defs>
      <g transform="translate(26.685 115.035469)scale(0.16 -0.16)">
       <use xlink:href="#DejaVuSans-48"/>
       <use x="63.623047" xlink:href="#DejaVuSans-46"/>
       <use x="95.410156" xlink:href="#DejaVuSans-56"/>
      </g>
     </g>
    </g>
    <g id="text_13">
     <!-- $M$ -->
     <defs>
      <path d="M 16.890625 72.90625 
L 31.6875 72.90625 
L 40.1875 23.78125 
L 68.40625 72.90625 
L 83.59375 72.90625 
L 69.390625 0 
L 59.8125 0 
L 72.21875 63.921875 
L 43.609375 14.015625 
L 33.984375 14.015625 
L 24.703125 64.109375 
L 12.3125 0 
L 2.6875 0 
z
" id="DejaVuSans-Oblique-77"/>
     </defs>
     <g transform="translate(19.3575 253.023)rotate(-90)scale(0.16 -0.16)">
      <use transform="translate(0 0.09375)" xlink:href="#DejaVuSans-Oblique-77"/>
     </g>
    </g>
   </g>
   <g id="line2d_12">
    <defs>
     <path d="M 0 5.6 
C 1.485137 5.6 2.909647 5.009949 3.959798 3.959798 
C 5.009949 2.909647 5.6 1.485137 5.6 0 
C 5.6 -1.485137 5.009949 -2.909647 3.959798 -3.959798 
C 2.909647 -5.009949 1.485137 -5.6 0 -5.6 
C -1.485137 -5.6 -2.909647 -5.009949 -3.959798 -3.959798 
C -5.009949 -2.909647 -5.6 -1.485137 -5.6 0 
C -5.6 1.485137 -5.009949 2.909647 -3.959798 3.959798 
C -2.909647 5.009949 -1.485137 5.6 0 5.6 
z
" id="mf889491222" style="stroke:#1f77b4;"/>
    </defs>
    <g clip-path="url(#pd6e6d3b71f)">
     <use style="fill-opacity:0;stroke:#1f77b4;" x="104.875455" xlink:href="#mf889491222" y="48.709295"/>
     <use style="fill-opacity:0;stroke:#1f77b4;" x="136.58" xlink:href="#mf889491222" y="48.390273"/>
     <use style="fill-opacity:0;stroke:#1f77b4;" x="168.284545" xlink:href="#mf889491222" y="52.51924"/>
     <use style="fill-opacity:0;stroke:#1f77b4;" x="199.989091" xlink:href="#mf889491222" y="59.659086"/>
     <use style="fill-opacity:0;stroke:#1f77b4;" x="231.693636" xlink:href="#mf889491222" y="68.051946"/>
     <use style="fill-opacity:0;stroke:#1f77b4;" x="263.398182" xlink:href="#mf889491222" y="77.576098"/>
     <use style="fill-opacity:0;stroke:#1f77b4;" x="295.102727" xlink:href="#mf889491222" y="89.299646"/>
     <use style="fill-opacity:0;stroke:#1f77b4;" x="326.807273" xlink:href="#mf889491222" y="102.168375"/>
     <use style="fill-opacity:0;stroke:#1f77b4;" x="358.511818" xlink:href="#mf889491222" y="117.851574"/>
     <use style="fill-opacity:0;stroke:#1f77b4;" x="390.216364" xlink:href="#mf889491222" y="138.727061"/>
     <use style="fill-opacity:0;stroke:#1f77b4;" x="421.920909" xlink:href="#mf889491222" y="175.044743"/>
     <use style="fill-opacity:0;stroke:#1f77b4;" x="453.625455" xlink:href="#mf889491222" y="215.324925"/>
     <use style="fill-opacity:0;stroke:#1f77b4;" x="485.33" xlink:href="#mf889491222" y="258.839804"/>
     <use style="fill-opacity:0;stroke:#1f77b4;" x="517.034545" xlink:href="#mf889491222" y="296.508922"/>
     <use style="fill-opacity:0;stroke:#1f77b4;" x="548.739091" xlink:href="#mf889491222" y="319.57756"/>
     <use style="fill-opacity:0;stroke:#1f77b4;" x="580.443636" xlink:href="#mf889491222" y="335.772348"/>
     <use style="fill-opacity:0;stroke:#1f77b4;" x="612.148182" xlink:href="#mf889491222" y="348.732553"/>
     <use style="fill-opacity:0;stroke:#1f77b4;" x="643.852727" xlink:href="#mf889491222" y="356.177512"/>
     <use style="fill-opacity:0;stroke:#1f77b4;" x="675.557273" xlink:href="#mf889491222" y="364.322272"/>
     <use style="fill-opacity:0;stroke:#1f77b4;" x="707.261818" xlink:href="#mf889491222" y="369.596676"/>
     <use style="fill-opacity:0;stroke:#1f77b4;" x="738.966364" xlink:href="#mf889491222" y="372.714127"/>
     <use style="fill-opacity:0;stroke:#1f77b4;" x="770.670909" xlink:href="#mf889491222" y="375.507304"/>
     <use style="fill-opacity:0;stroke:#1f77b4;" x="802.375455" xlink:href="#mf889491222" y="380.253233"/>
     <use style="fill-opacity:0;stroke:#1f77b4;" x="834.08" xlink:href="#mf889491222" y="383.342474"/>
     <use style="fill-opacity:0;stroke:#1f77b4;" x="865.784545" xlink:href="#mf889491222" y="383.925984"/>
    </g>
   </g>
   <g id="line2d_13">
    <defs>
     <path d="M 0 -5.6 
L -5.6 5.6 
L 5.6 5.6 
z
" id="m958ba371bb" style="stroke:#ff7f0e;stroke-linejoin:miter;"/>
    </defs>
    <g clip-path="url(#pd6e6d3b71f)">
     <use style="fill-opacity:0;stroke:#ff7f0e;stroke-linejoin:miter;" x="104.875455" xlink:href="#m958ba371bb" y="72.058784"/>
     <use style="fill-opacity:0;stroke:#ff7f0e;stroke-linejoin:miter;" x="136.58" xlink:href="#m958ba371bb" y="63.031467"/>
     <use style="fill-opacity:0;stroke:#ff7f0e;stroke-linejoin:miter;" x="168.284545" xlink:href="#m958ba371bb" y="67.578208"/>
     <use style="fill-opacity:0;stroke:#ff7f0e;stroke-linejoin:miter;" x="199.989091" xlink:href="#m958ba371bb" y="74.554332"/>
     <use style="fill-opacity:0;stroke:#ff7f0e;stroke-linejoin:miter;" x="231.693636" xlink:href="#m958ba371bb" y="85.764841"/>
     <use style="fill-opacity:0;stroke:#ff7f0e;stroke-linejoin:miter;" x="263.398182" xlink:href="#m958ba371bb" y="100.051883"/>
     <use style="fill-opacity:0;stroke:#ff7f0e;stroke-linejoin:miter;" x="295.102727" xlink:href="#m958ba371bb" y="115.300824"/>
     <use style="fill-opacity:0;stroke:#ff7f0e;stroke-linejoin:miter;" x="326.807273" xlink:href="#m958ba371bb" y="132.238741"/>
     <use style="fill-opacity:0;stroke:#ff7f0e;stroke-linejoin:miter;" x="358.511818" xlink:href="#m958ba371bb" y="157.016591"/>
     <use style="fill-opacity:0;stroke:#ff7f0e;stroke-linejoin:miter;" x="390.216364" xlink:href="#m958ba371bb" y="220.69284"/>
     <use style="fill-opacity:0;stroke:#ff7f0e;stroke-linejoin:miter;" x="421.920909" xlink:href="#m958ba371bb" y="287.700731"/>
     <use style="fill-opacity:0;stroke:#ff7f0e;stroke-linejoin:miter;" x="453.625455" xlink:href="#m958ba371bb" y="355.928948"/>
     <use style="fill-opacity:0;stroke:#ff7f0e;stroke-linejoin:miter;" x="485.33" xlink:href="#m958ba371bb" y="382.623931"/>
     <use style="fill-opacity:0;stroke:#ff7f0e;stroke-linejoin:miter;" x="517.034545" xlink:href="#m958ba371bb" y="398.897536"/>
     <use style="fill-opacity:0;stroke:#ff7f0e;stroke-linejoin:miter;" x="548.739091" xlink:href="#m958ba371bb" y="406.431185"/>
     <use style="fill-opacity:0;stroke:#ff7f0e;stroke-linejoin:miter;" x="580.443636" xlink:href="#m958ba371bb" y="413.178349"/>
     <use style="fill-opacity:0;stroke:#ff7f0e;stroke-linejoin:miter;" x="612.148182" xlink:href="#m958ba371bb" y="415.972146"/>
     <use style="fill-opacity:0;stroke:#ff7f0e;stroke-linejoin:miter;" x="643.852727" xlink:href="#m958ba371bb" y="418.804507"/>
     <use style="fill-opacity:0;stroke:#ff7f0e;stroke-linejoin:miter;" x="675.557273" xlink:href="#m958ba371bb" y="421.567953"/>
     <use style="fill-opacity:0;stroke:#ff7f0e;stroke-linejoin:miter;" x="707.261818" xlink:href="#m958ba371bb" y="423.564278"/>
     <use style="fill-opacity:0;stroke:#ff7f0e;stroke-linejoin:miter;" x="738.966364" xlink:href="#m958ba371bb" y="424.373232"/>
     <use style="fill-opacity:0;stroke:#ff7f0e;stroke-linejoin:miter;" x="770.670909" xlink:href="#m958ba371bb" y="425.550348"/>
     <use style="fill-opacity:0;stroke:#ff7f0e;stroke-linejoin:miter;" x="802.375455" xlink:href="#m958ba371bb" y="427.047466"/>
     <use style="fill-opacity:0;stroke:#ff7f0e;stroke-linejoin:miter;" x="834.08" xlink:href="#m958ba371bb" y="427.715347"/>
     <use style="fill-opacity:0;stroke:#ff7f0e;stroke-linejoin:miter;" x="865.784545" xlink:href="#m958ba371bb" y="428.493919"/>
    </g>
   </g>
   <g id="line2d_14">
    <defs>
     <path d="M -5.6 5.6 
L 5.6 5.6 
L 5.6 -5.6 
L -5.6 -5.6 
z
" id="m0414785fa8" style="stroke:#2ca02c;stroke-linejoin:miter;"/>
    </defs>
    <g clip-path="url(#pd6e6d3b71f)">
     <use style="fill-opacity:0;stroke:#2ca02c;stroke-linejoin:miter;" x="104.875455" xlink:href="#m0414785fa8" y="174.325602"/>
     <use style="fill-opacity:0;stroke:#2ca02c;stroke-linejoin:miter;" x="136.58" xlink:href="#m0414785fa8" y="94.364387"/>
     <use style="fill-opacity:0;stroke:#2ca02c;stroke-linejoin:miter;" x="168.284545" xlink:href="#m0414785fa8" y="94.04249"/>
     <use style="fill-opacity:0;stroke:#2ca02c;stroke-linejoin:miter;" x="199.989091" xlink:href="#m0414785fa8" y="92.125384"/>
     <use style="fill-opacity:0;stroke:#2ca02c;stroke-linejoin:miter;" x="231.693636" xlink:href="#m0414785fa8" y="96.337331"/>
     <use style="fill-opacity:0;stroke:#2ca02c;stroke-linejoin:miter;" x="263.398182" xlink:href="#m0414785fa8" y="114.972797"/>
     <use style="fill-opacity:0;stroke:#2ca02c;stroke-linejoin:miter;" x="295.102727" xlink:href="#m0414785fa8" y="130.564265"/>
     <use style="fill-opacity:0;stroke:#2ca02c;stroke-linejoin:miter;" x="326.807273" xlink:href="#m0414785fa8" y="154.297236"/>
     <use style="fill-opacity:0;stroke:#2ca02c;stroke-linejoin:miter;" x="358.511818" xlink:href="#m0414785fa8" y="183.576395"/>
     <use style="fill-opacity:0;stroke:#2ca02c;stroke-linejoin:miter;" x="390.216364" xlink:href="#m0414785fa8" y="276.705876"/>
     <use style="fill-opacity:0;stroke:#2ca02c;stroke-linejoin:miter;" x="421.920909" xlink:href="#m0414785fa8" y="375.011473"/>
     <use style="fill-opacity:0;stroke:#2ca02c;stroke-linejoin:miter;" x="453.625455" xlink:href="#m0414785fa8" y="406.226092"/>
     <use style="fill-opacity:0;stroke:#2ca02c;stroke-linejoin:miter;" x="485.33" xlink:href="#m0414785fa8" y="417.934152"/>
     <use style="fill-opacity:0;stroke:#2ca02c;stroke-linejoin:miter;" x="517.034545" xlink:href="#m0414785fa8" y="424.545023"/>
     <use style="fill-opacity:0;stroke:#2ca02c;stroke-linejoin:miter;" x="548.739091" xlink:href="#m0414785fa8" y="428.663801"/>
     <use style="fill-opacity:0;stroke:#2ca02c;stroke-linejoin:miter;" x="580.443636" xlink:href="#m0414785fa8" y="431.391442"/>
     <use style="fill-opacity:0;stroke:#2ca02c;stroke-linejoin:miter;" x="612.148182" xlink:href="#m0414785fa8" y="433.844132"/>
     <use style="fill-opacity:0;stroke:#2ca02c;stroke-linejoin:miter;" x="643.852727" xlink:href="#m0414785fa8" y="435.074376"/>
     <use style="fill-opacity:0;stroke:#2ca02c;stroke-linejoin:miter;" x="675.557273" xlink:href="#m0414785fa8" y="435.965334"/>
     <use style="fill-opacity:0;stroke:#2ca02c;stroke-linejoin:miter;" x="707.261818" xlink:href="#m0414785fa8" y="436.911995"/>
     <use style="fill-opacity:0;stroke:#2ca02c;stroke-linejoin:miter;" x="738.966364" xlink:href="#m0414785fa8" y="437.704451"/>
     <use style="fill-opacity:0;stroke:#2ca02c;stroke-linejoin:miter;" x="770.670909" xlink:href="#m0414785fa8" y="438.143831"/>
     <use style="fill-opacity:0;stroke:#2ca02c;stroke-linejoin:miter;" x="802.375455" xlink:href="#m0414785fa8" y="438.595388"/>
     <use style="fill-opacity:0;stroke:#2ca02c;stroke-linejoin:miter;" x="834.08" xlink:href="#m0414785fa8" y="439.137249"/>
     <use style="fill-opacity:0;stroke:#2ca02c;stroke-linejoin:miter;" x="865.784545" xlink:href="#m0414785fa8" y="439.47725"/>
    </g>
   </g>
   <g id="line2d_15">
    <defs>
     <path d="M -1.866667 5.6 
L 1.866667 5.6 
L 1.866667 1.866667 
L 5.6 1.866667 
L 5.6 -1.866667 
L 1.866667 -1.866667 
L 1.866667 -5.6 
L -1.866667 -5.6 
L -1.866667 -1.866667 
L -5.6 -1.866667 
L -5.6 1.866667 
L -1.866667 1.866667 
z
" id="m9566b34081" style="stroke:#d62728;stroke-linejoin:miter;"/>
    </defs>
    <g clip-path="url(#pd6e6d3b71f)">
     <use style="fill-opacity:0;stroke:#d62728;stroke-linejoin:miter;" x="104.875455" xlink:href="#m9566b34081" y="156.429119"/>
     <use style="fill-opacity:0;stroke:#d62728;stroke-linejoin:miter;" x="136.58" xlink:href="#m9566b34081" y="197.378176"/>
     <use style="fill-opacity:0;stroke:#d62728;stroke-linejoin:miter;" x="168.284545" xlink:href="#m9566b34081" y="116.520998"/>
     <use style="fill-opacity:0;stroke:#d62728;stroke-linejoin:miter;" x="199.989091" xlink:href="#m9566b34081" y="117.873501"/>
     <use style="fill-opacity:0;stroke:#d62728;stroke-linejoin:miter;" x="231.693636" xlink:href="#m9566b34081" y="203.439157"/>
     <use style="fill-opacity:0;stroke:#d62728;stroke-linejoin:miter;" x="263.398182" xlink:href="#m9566b34081" y="368.920666"/>
     <use style="fill-opacity:0;stroke:#d62728;stroke-linejoin:miter;" x="295.102727" xlink:href="#m9566b34081" y="360.75544"/>
     <use style="fill-opacity:0;stroke:#d62728;stroke-linejoin:miter;" x="326.807273" xlink:href="#m9566b34081" y="254.726824"/>
     <use style="fill-opacity:0;stroke:#d62728;stroke-linejoin:miter;" x="358.511818" xlink:href="#m9566b34081" y="372.405898"/>
     <use style="fill-opacity:0;stroke:#d62728;stroke-linejoin:miter;" x="390.216364" xlink:href="#m9566b34081" y="384.439462"/>
     <use style="fill-opacity:0;stroke:#d62728;stroke-linejoin:miter;" x="421.920909" xlink:href="#m9566b34081" y="407.091669"/>
     <use style="fill-opacity:0;stroke:#d62728;stroke-linejoin:miter;" x="453.625455" xlink:href="#m9566b34081" y="422.637742"/>
     <use style="fill-opacity:0;stroke:#d62728;stroke-linejoin:miter;" x="485.33" xlink:href="#m9566b34081" y="429.570394"/>
     <use style="fill-opacity:0;stroke:#d62728;stroke-linejoin:miter;" x="517.034545" xlink:href="#m9566b34081" y="435.260906"/>
     <use style="fill-opacity:0;stroke:#d62728;stroke-linejoin:miter;" x="548.739091" xlink:href="#m9566b34081" y="437.263538"/>
     <use style="fill-opacity:0;stroke:#d62728;stroke-linejoin:miter;" x="580.443636" xlink:href="#m9566b34081" y="439.208113"/>
     <use style="fill-opacity:0;stroke:#d62728;stroke-linejoin:miter;" x="612.148182" xlink:href="#m9566b34081" y="440.199085"/>
     <use style="fill-opacity:0;stroke:#d62728;stroke-linejoin:miter;" x="643.852727" xlink:href="#m9566b34081" y="441.048449"/>
     <use style="fill-opacity:0;stroke:#d62728;stroke-linejoin:miter;" x="675.557273" xlink:href="#m9566b34081" y="441.774277"/>
     <use style="fill-opacity:0;stroke:#d62728;stroke-linejoin:miter;" x="707.261818" xlink:href="#m9566b34081" y="442.175555"/>
     <use style="fill-opacity:0;stroke:#d62728;stroke-linejoin:miter;" x="738.966364" xlink:href="#m9566b34081" y="442.764039"/>
     <use style="fill-opacity:0;stroke:#d62728;stroke-linejoin:miter;" x="770.670909" xlink:href="#m9566b34081" y="443.107351"/>
     <use style="fill-opacity:0;stroke:#d62728;stroke-linejoin:miter;" x="802.375455" xlink:href="#m9566b34081" y="443.319607"/>
     <use style="fill-opacity:0;stroke:#d62728;stroke-linejoin:miter;" x="834.08" xlink:href="#m9566b34081" y="443.623336"/>
     <use style="fill-opacity:0;stroke:#d62728;stroke-linejoin:miter;" x="865.784545" xlink:href="#m9566b34081" y="443.735727"/>
    </g>
   </g>
   <g id="patch_3">
    <path d="M 66.83 463.503 
L 66.83 28.623 
" style="fill:none;stroke:#000000;stroke-linecap:square;stroke-linejoin:miter;stroke-width:0.8;"/>
   </g>
   <g id="patch_4">
    <path d="M 903.83 463.503 
L 903.83 28.623 
" style="fill:none;stroke:#000000;stroke-linecap:square;stroke-linejoin:miter;stroke-width:0.8;"/>
   </g>
   <g id="patch_5">
    <path d="M 66.83 463.503 
L 903.83 463.503 
" style="fill:none;stroke:#000000;stroke-linecap:square;stroke-linejoin:miter;stroke-width:0.8;"/>
   </g>
   <g id="patch_6">
    <path d="M 66.83 28.623 
L 903.83 28.623 
" style="fill:none;stroke:#000000;stroke-linecap:square;stroke-linejoin:miter;stroke-width:0.8;"/>
   </g>
   <g id="text_14">
    <!-- Wykres zależności magnetyzacji od temperatury -->
    <defs>
     <path d="M 3.328125 72.90625 
L 13.28125 72.90625 
L 28.609375 11.28125 
L 43.890625 72.90625 
L 54.984375 72.90625 
L 70.3125 11.28125 
L 85.59375 72.90625 
L 95.609375 72.90625 
L 77.296875 0 
L 64.890625 0 
L 49.515625 63.28125 
L 33.984375 0 
L 21.578125 0 
z
" id="DejaVuSans-87"/>
     <path d="M 32.171875 -5.078125 
Q 28.375 -14.84375 24.75 -17.8125 
Q 21.140625 -20.796875 15.09375 -20.796875 
L 7.90625 -20.796875 
L 7.90625 -13.28125 
L 13.1875 -13.28125 
Q 16.890625 -13.28125 18.9375 -11.515625 
Q 21 -9.765625 23.484375 -3.21875 
L 25.09375 0.875 
L 2.984375 54.6875 
L 12.5 54.6875 
L 29.59375 11.921875 
L 46.6875 54.6875 
L 56.203125 54.6875 
z
" id="DejaVuSans-121"/>
     <path d="M 9.078125 75.984375 
L 18.109375 75.984375 
L 18.109375 31.109375 
L 44.921875 54.6875 
L 56.390625 54.6875 
L 27.390625 29.109375 
L 57.625 0 
L 45.90625 0 
L 18.109375 26.703125 
L 18.109375 0 
L 9.078125 0 
z
" id="DejaVuSans-107"/>
     <path d="M 41.109375 46.296875 
Q 39.59375 47.171875 37.8125 47.578125 
Q 36.03125 48 33.890625 48 
Q 26.265625 48 22.1875 43.046875 
Q 18.109375 38.09375 18.109375 28.8125 
L 18.109375 0 
L 9.078125 0 
L 9.078125 54.6875 
L 18.109375 54.6875 
L 18.109375 46.1875 
Q 20.953125 51.171875 25.484375 53.578125 
Q 30.03125 56 36.53125 56 
Q 37.453125 56 38.578125 55.875 
Q 39.703125 55.765625 41.0625 55.515625 
z
" id="DejaVuSans-114"/>
     <path d="M 56.203125 29.59375 
L 56.203125 25.203125 
L 14.890625 25.203125 
Q 15.484375 15.921875 20.484375 11.0625 
Q 25.484375 6.203125 34.421875 6.203125 
Q 39.59375 6.203125 44.453125 7.46875 
Q 49.3125 8.734375 54.109375 11.28125 
L 54.109375 2.78125 
Q 49.265625 0.734375 44.1875 -0.34375 
Q 39.109375 -1.421875 33.890625 -1.421875 
Q 20.796875 -1.421875 13.15625 6.1875 
Q 5.515625 13.8125 5.515625 26.8125 
Q 5.515625 40.234375 12.765625 48.109375 
Q 20.015625 56 32.328125 56 
Q 43.359375 56 49.78125 48.890625 
Q 56.203125 41.796875 56.203125 29.59375 
z
M 47.21875 32.234375 
Q 47.125 39.59375 43.09375 43.984375 
Q 39.0625 48.390625 32.421875 48.390625 
Q 24.90625 48.390625 20.390625 44.140625 
Q 15.875 39.890625 15.1875 32.171875 
z
" id="DejaVuSans-101"/>
     <path d="M 44.28125 53.078125 
L 44.28125 44.578125 
Q 40.484375 46.53125 36.375 47.5 
Q 32.28125 48.484375 27.875 48.484375 
Q 21.1875 48.484375 17.84375 46.4375 
Q 14.5 44.390625 14.5 40.28125 
Q 14.5 37.15625 16.890625 35.375 
Q 19.28125 33.59375 26.515625 31.984375 
L 29.59375 31.296875 
Q 39.15625 29.25 43.1875 25.515625 
Q 47.21875 21.78125 47.21875 15.09375 
Q 47.21875 7.46875 41.1875 3.015625 
Q 35.15625 -1.421875 24.609375 -1.421875 
Q 20.21875 -1.421875 15.453125 -0.5625 
Q 10.6875 0.296875 5.421875 2 
L 5.421875 11.28125 
Q 10.40625 8.6875 15.234375 7.390625 
Q 20.0625 6.109375 24.8125 6.109375 
Q 31.15625 6.109375 34.5625 8.28125 
Q 37.984375 10.453125 37.984375 14.40625 
Q 37.984375 18.0625 35.515625 20.015625 
Q 33.0625 21.96875 24.703125 23.78125 
L 21.578125 24.515625 
Q 13.234375 26.265625 9.515625 29.90625 
Q 5.8125 33.546875 5.8125 39.890625 
Q 5.8125 47.609375 11.28125 51.796875 
Q 16.75 56 26.8125 56 
Q 31.78125 56 36.171875 55.265625 
Q 40.578125 54.546875 44.28125 53.078125 
z
" id="DejaVuSans-115"/>
     <path id="DejaVuSans-32"/>
     <path d="M 5.515625 54.6875 
L 48.1875 54.6875 
L 48.1875 46.484375 
L 14.40625 7.171875 
L 48.1875 7.171875 
L 48.1875 0 
L 4.296875 0 
L 4.296875 8.203125 
L 38.09375 47.515625 
L 5.515625 47.515625 
z
" id="DejaVuSans-122"/>
     <path d="M 34.28125 27.484375 
Q 23.390625 27.484375 19.1875 25 
Q 14.984375 22.515625 14.984375 16.5 
Q 14.984375 11.71875 18.140625 8.90625 
Q 21.296875 6.109375 26.703125 6.109375 
Q 34.1875 6.109375 38.703125 11.40625 
Q 43.21875 16.703125 43.21875 25.484375 
L 43.21875 27.484375 
z
M 52.203125 31.203125 
L 52.203125 0 
L 43.21875 0 
L 43.21875 8.296875 
Q 40.140625 3.328125 35.546875 0.953125 
Q 30.953125 -1.421875 24.3125 -1.421875 
Q 15.921875 -1.421875 10.953125 3.296875 
Q 6 8.015625 6 15.921875 
Q 6 25.140625 12.171875 29.828125 
Q 18.359375 34.515625 30.609375 34.515625 
L 43.21875 34.515625 
L 43.21875 35.40625 
Q 43.21875 41.609375 39.140625 45 
Q 35.0625 48.390625 27.6875 48.390625 
Q 23 48.390625 18.546875 47.265625 
Q 14.109375 46.140625 10.015625 43.890625 
L 10.015625 52.203125 
Q 14.9375 54.109375 19.578125 55.046875 
Q 24.21875 56 28.609375 56 
Q 40.484375 56 46.34375 49.84375 
Q 52.203125 43.703125 52.203125 31.203125 
z
" id="DejaVuSans-97"/>
     <path d="M 9.421875 75.984375 
L 18.40625 75.984375 
L 18.40625 0 
L 9.421875 0 
z
" id="DejaVuSans-108"/>
     <path d="M 21.53125 75.984375 
L 30.515625 75.984375 
L 30.515625 64.59375 
L 21.53125 64.59375 
z
M 26.125 56 
z
M 5.515625 54.6875 
L 48.1875 54.6875 
L 48.1875 46.484375 
L 14.40625 7.171875 
L 48.1875 7.171875 
L 48.1875 0 
L 4.296875 0 
L 4.296875 8.203125 
L 38.09375 47.515625 
L 5.515625 47.515625 
z
" id="DejaVuSans-380"/>
     <path d="M 54.890625 33.015625 
L 54.890625 0 
L 45.90625 0 
L 45.90625 32.71875 
Q 45.90625 40.484375 42.875 44.328125 
Q 39.84375 48.1875 33.796875 48.1875 
Q 26.515625 48.1875 22.3125 43.546875 
Q 18.109375 38.921875 18.109375 30.90625 
L 18.109375 0 
L 9.078125 0 
L 9.078125 54.6875 
L 18.109375 54.6875 
L 18.109375 46.1875 
Q 21.34375 51.125 25.703125 53.5625 
Q 30.078125 56 35.796875 56 
Q 45.21875 56 50.046875 50.171875 
Q 54.890625 44.34375 54.890625 33.015625 
z
" id="DejaVuSans-110"/>
     <path d="M 30.609375 48.390625 
Q 23.390625 48.390625 19.1875 42.75 
Q 14.984375 37.109375 14.984375 27.296875 
Q 14.984375 17.484375 19.15625 11.84375 
Q 23.34375 6.203125 30.609375 6.203125 
Q 37.796875 6.203125 41.984375 11.859375 
Q 46.1875 17.53125 46.1875 27.296875 
Q 46.1875 37.015625 41.984375 42.703125 
Q 37.796875 48.390625 30.609375 48.390625 
z
M 30.609375 56 
Q 42.328125 56 49.015625 48.375 
Q 55.71875 40.765625 55.71875 27.296875 
Q 55.71875 13.875 49.015625 6.21875 
Q 42.328125 -1.421875 30.609375 -1.421875 
Q 18.84375 -1.421875 12.171875 6.21875 
Q 5.515625 13.875 5.515625 27.296875 
Q 5.515625 40.765625 12.171875 48.375 
Q 18.84375 56 30.609375 56 
z
" id="DejaVuSans-111"/>
     <path d="M 35.015625 80.328125 
L 44.734375 80.328125 
L 28.8125 61.96875 
L 21.34375 61.96875 
z
M 44.28125 53.078125 
L 44.28125 44.578125 
Q 40.484375 46.53125 36.375 47.5 
Q 32.28125 48.484375 27.875 48.484375 
Q 21.1875 48.484375 17.84375 46.4375 
Q 14.5 44.390625 14.5 40.28125 
Q 14.5 37.15625 16.890625 35.375 
Q 19.28125 33.59375 26.515625 31.984375 
L 29.59375 31.296875 
Q 39.15625 29.25 43.1875 25.515625 
Q 47.21875 21.78125 47.21875 15.09375 
Q 47.21875 7.46875 41.1875 3.015625 
Q 35.15625 -1.421875 24.609375 -1.421875 
Q 20.21875 -1.421875 15.453125 -0.5625 
Q 10.6875 0.296875 5.421875 2 
L 5.421875 11.28125 
Q 10.40625 8.6875 15.234375 7.390625 
Q 20.0625 6.109375 24.8125 6.109375 
Q 31.15625 6.109375 34.5625 8.28125 
Q 37.984375 10.453125 37.984375 14.40625 
Q 37.984375 18.0625 35.515625 20.015625 
Q 33.0625 21.96875 24.703125 23.78125 
L 21.578125 24.515625 
Q 13.234375 26.265625 9.515625 29.90625 
Q 5.8125 33.546875 5.8125 39.890625 
Q 5.8125 47.609375 11.28125 51.796875 
Q 16.75 56 26.8125 56 
Q 31.78125 56 36.171875 55.265625 
Q 40.578125 54.546875 44.28125 53.078125 
z
" id="DejaVuSans-347"/>
     <path d="M 48.78125 52.59375 
L 48.78125 44.1875 
Q 44.96875 46.296875 41.140625 47.34375 
Q 37.3125 48.390625 33.40625 48.390625 
Q 24.65625 48.390625 19.8125 42.84375 
Q 14.984375 37.3125 14.984375 27.296875 
Q 14.984375 17.28125 19.8125 11.734375 
Q 24.65625 6.203125 33.40625 6.203125 
Q 37.3125 6.203125 41.140625 7.25 
Q 44.96875 8.296875 48.78125 10.40625 
L 48.78125 2.09375 
Q 45.015625 0.34375 40.984375 -0.53125 
Q 36.96875 -1.421875 32.421875 -1.421875 
Q 20.0625 -1.421875 12.78125 6.34375 
Q 5.515625 14.109375 5.515625 27.296875 
Q 5.515625 40.671875 12.859375 48.328125 
Q 20.21875 56 33.015625 56 
Q 37.15625 56 41.109375 55.140625 
Q 45.0625 54.296875 48.78125 52.59375 
z
" id="DejaVuSans-99"/>
     <path d="M 9.421875 54.6875 
L 18.40625 54.6875 
L 18.40625 0 
L 9.421875 0 
z
M 9.421875 75.984375 
L 18.40625 75.984375 
L 18.40625 64.59375 
L 9.421875 64.59375 
z
" id="DejaVuSans-105"/>
     <path d="M 52 44.1875 
Q 55.375 50.25 60.0625 53.125 
Q 64.75 56 71.09375 56 
Q 79.640625 56 84.28125 50.015625 
Q 88.921875 44.046875 88.921875 33.015625 
L 88.921875 0 
L 79.890625 0 
L 79.890625 32.71875 
Q 79.890625 40.578125 77.09375 44.375 
Q 74.3125 48.1875 68.609375 48.1875 
Q 61.625 48.1875 57.5625 43.546875 
Q 53.515625 38.921875 53.515625 30.90625 
L 53.515625 0 
L 44.484375 0 
L 44.484375 32.71875 
Q 44.484375 40.625 41.703125 44.40625 
Q 38.921875 48.1875 33.109375 48.1875 
Q 26.21875 48.1875 22.15625 43.53125 
Q 18.109375 38.875 18.109375 30.90625 
L 18.109375 0 
L 9.078125 0 
L 9.078125 54.6875 
L 18.109375 54.6875 
L 18.109375 46.1875 
Q 21.1875 51.21875 25.484375 53.609375 
Q 29.78125 56 35.6875 56 
Q 41.65625 56 45.828125 52.96875 
Q 50 49.953125 52 44.1875 
z
" id="DejaVuSans-109"/>
     <path d="M 45.40625 27.984375 
Q 45.40625 37.75 41.375 43.109375 
Q 37.359375 48.484375 30.078125 48.484375 
Q 22.859375 48.484375 18.828125 43.109375 
Q 14.796875 37.75 14.796875 27.984375 
Q 14.796875 18.265625 18.828125 12.890625 
Q 22.859375 7.515625 30.078125 7.515625 
Q 37.359375 7.515625 41.375 12.890625 
Q 45.40625 18.265625 45.40625 27.984375 
z
M 54.390625 6.78125 
Q 54.390625 -7.171875 48.1875 -13.984375 
Q 42 -20.796875 29.203125 -20.796875 
Q 24.46875 -20.796875 20.265625 -20.09375 
Q 16.0625 -19.390625 12.109375 -17.921875 
L 12.109375 -9.1875 
Q 16.0625 -11.328125 19.921875 -12.34375 
Q 23.78125 -13.375 27.78125 -13.375 
Q 36.625 -13.375 41.015625 -8.765625 
Q 45.40625 -4.15625 45.40625 5.171875 
L 45.40625 9.625 
Q 42.625 4.78125 38.28125 2.390625 
Q 33.9375 0 27.875 0 
Q 17.828125 0 11.671875 7.65625 
Q 5.515625 15.328125 5.515625 27.984375 
Q 5.515625 40.671875 11.671875 48.328125 
Q 17.828125 56 27.875 56 
Q 33.9375 56 38.28125 53.609375 
Q 42.625 51.21875 45.40625 46.390625 
L 45.40625 54.6875 
L 54.390625 54.6875 
z
" id="DejaVuSans-103"/>
     <path d="M 18.3125 70.21875 
L 18.3125 54.6875 
L 36.8125 54.6875 
L 36.8125 47.703125 
L 18.3125 47.703125 
L 18.3125 18.015625 
Q 18.3125 11.328125 20.140625 9.421875 
Q 21.96875 7.515625 27.59375 7.515625 
L 36.8125 7.515625 
L 36.8125 0 
L 27.59375 0 
Q 17.1875 0 13.234375 3.875 
Q 9.28125 7.765625 9.28125 18.015625 
L 9.28125 47.703125 
L 2.6875 47.703125 
L 2.6875 54.6875 
L 9.28125 54.6875 
L 9.28125 70.21875 
z
" id="DejaVuSans-116"/>
     <path d="M 9.421875 54.6875 
L 18.40625 54.6875 
L 18.40625 -0.984375 
Q 18.40625 -11.421875 14.421875 -16.109375 
Q 10.453125 -20.796875 1.609375 -20.796875 
L -1.8125 -20.796875 
L -1.8125 -13.1875 
L 0.59375 -13.1875 
Q 5.71875 -13.1875 7.5625 -10.8125 
Q 9.421875 -8.453125 9.421875 -0.984375 
z
M 9.421875 75.984375 
L 18.40625 75.984375 
L 18.40625 64.59375 
L 9.421875 64.59375 
z
" id="DejaVuSans-106"/>
     <path d="M 45.40625 46.390625 
L 45.40625 75.984375 
L 54.390625 75.984375 
L 54.390625 0 
L 45.40625 0 
L 45.40625 8.203125 
Q 42.578125 3.328125 38.25 0.953125 
Q 33.9375 -1.421875 27.875 -1.421875 
Q 17.96875 -1.421875 11.734375 6.484375 
Q 5.515625 14.40625 5.515625 27.296875 
Q 5.515625 40.1875 11.734375 48.09375 
Q 17.96875 56 27.875 56 
Q 33.9375 56 38.25 53.625 
Q 42.578125 51.265625 45.40625 46.390625 
z
M 14.796875 27.296875 
Q 14.796875 17.390625 18.875 11.75 
Q 22.953125 6.109375 30.078125 6.109375 
Q 37.203125 6.109375 41.296875 11.75 
Q 45.40625 17.390625 45.40625 27.296875 
Q 45.40625 37.203125 41.296875 42.84375 
Q 37.203125 48.484375 30.078125 48.484375 
Q 22.953125 48.484375 18.875 42.84375 
Q 14.796875 37.203125 14.796875 27.296875 
z
" id="DejaVuSans-100"/>
     <path d="M 18.109375 8.203125 
L 18.109375 -20.796875 
L 9.078125 -20.796875 
L 9.078125 54.6875 
L 18.109375 54.6875 
L 18.109375 46.390625 
Q 20.953125 51.265625 25.265625 53.625 
Q 29.59375 56 35.59375 56 
Q 45.5625 56 51.78125 48.09375 
Q 58.015625 40.1875 58.015625 27.296875 
Q 58.015625 14.40625 51.78125 6.484375 
Q 45.5625 -1.421875 35.59375 -1.421875 
Q 29.59375 -1.421875 25.265625 0.953125 
Q 20.953125 3.328125 18.109375 8.203125 
z
M 48.6875 27.296875 
Q 48.6875 37.203125 44.609375 42.84375 
Q 40.53125 48.484375 33.40625 48.484375 
Q 26.265625 48.484375 22.1875 42.84375 
Q 18.109375 37.203125 18.109375 27.296875 
Q 18.109375 17.390625 22.1875 11.75 
Q 26.265625 6.109375 33.40625 6.109375 
Q 40.53125 6.109375 44.609375 11.75 
Q 48.6875 17.390625 48.6875 27.296875 
z
" id="DejaVuSans-112"/>
     <path d="M 8.5 21.578125 
L 8.5 54.6875 
L 17.484375 54.6875 
L 17.484375 21.921875 
Q 17.484375 14.15625 20.5 10.265625 
Q 23.53125 6.390625 29.59375 6.390625 
Q 36.859375 6.390625 41.078125 11.03125 
Q 45.3125 15.671875 45.3125 23.6875 
L 45.3125 54.6875 
L 54.296875 54.6875 
L 54.296875 0 
L 45.3125 0 
L 45.3125 8.40625 
Q 42.046875 3.421875 37.71875 1 
Q 33.40625 -1.421875 27.6875 -1.421875 
Q 18.265625 -1.421875 13.375 4.4375 
Q 8.5 10.296875 8.5 21.578125 
z
M 31.109375 56 
z
" id="DejaVuSans-117"/>
    </defs>
    <g transform="translate(251.5085 22.623)scale(0.192 -0.192)">
     <use xlink:href="#DejaVuSans-87"/>
     <use x="98.861328" xlink:href="#DejaVuSans-121"/>
     <use x="158.041016" xlink:href="#DejaVuSans-107"/>
     <use x="215.951172" xlink:href="#DejaVuSans-114"/>
     <use x="257.033203" xlink:href="#DejaVuSans-101"/>
     <use x="318.556641" xlink:href="#DejaVuSans-115"/>
     <use x="370.65625" xlink:href="#DejaVuSans-32"/>
     <use x="402.443359" xlink:href="#DejaVuSans-122"/>
     <use x="454.933594" xlink:href="#DejaVuSans-97"/>
     <use x="516.212891" xlink:href="#DejaVuSans-108"/>
     <use x="543.996094" xlink:href="#DejaVuSans-101"/>
     <use x="605.519531" xlink:href="#DejaVuSans-380"/>
     <use x="658.009766" xlink:href="#DejaVuSans-110"/>
     <use x="721.388672" xlink:href="#DejaVuSans-111"/>
     <use x="782.570312" xlink:href="#DejaVuSans-347"/>
     <use x="834.669922" xlink:href="#DejaVuSans-99"/>
     <use x="889.650391" xlink:href="#DejaVuSans-105"/>
     <use x="917.433594" xlink:href="#DejaVuSans-32"/>
     <use x="949.220703" xlink:href="#DejaVuSans-109"/>
     <use x="1046.632812" xlink:href="#DejaVuSans-97"/>
     <use x="1107.912109" xlink:href="#DejaVuSans-103"/>
     <use x="1171.388672" xlink:href="#DejaVuSans-110"/>
     <use x="1234.767578" xlink:href="#DejaVuSans-101"/>
     <use x="1296.291016" xlink:href="#DejaVuSans-116"/>
     <use x="1335.5" xlink:href="#DejaVuSans-121"/>
     <use x="1394.679688" xlink:href="#DejaVuSans-122"/>
     <use x="1447.169922" xlink:href="#DejaVuSans-97"/>
     <use x="1508.449219" xlink:href="#DejaVuSans-99"/>
     <use x="1563.429688" xlink:href="#DejaVuSans-106"/>
     <use x="1591.212891" xlink:href="#DejaVuSans-105"/>
     <use x="1618.996094" xlink:href="#DejaVuSans-32"/>
     <use x="1650.783203" xlink:href="#DejaVuSans-111"/>
     <use x="1711.964844" xlink:href="#DejaVuSans-100"/>
     <use x="1775.441406" xlink:href="#DejaVuSans-32"/>
     <use x="1807.228516" xlink:href="#DejaVuSans-116"/>
     <use x="1846.4375" xlink:href="#DejaVuSans-101"/>
     <use x="1907.960938" xlink:href="#DejaVuSans-109"/>
     <use x="2005.373047" xlink:href="#DejaVuSans-112"/>
     <use x="2068.849609" xlink:href="#DejaVuSans-101"/>
     <use x="2130.373047" xlink:href="#DejaVuSans-114"/>
     <use x="2171.486328" xlink:href="#DejaVuSans-97"/>
     <use x="2232.765625" xlink:href="#DejaVuSans-116"/>
     <use x="2271.974609" xlink:href="#DejaVuSans-117"/>
     <use x="2335.353516" xlink:href="#DejaVuSans-114"/>
     <use x="2376.466797" xlink:href="#DejaVuSans-121"/>
    </g>
   </g>
   <g id="legend_1">
    <g id="patch_7">
     <path d="M 788.5675 135.363 
L 892.63 135.363 
Q 895.83 135.363 895.83 132.163 
L 895.83 39.823 
Q 895.83 36.623 892.63 36.623 
L 788.5675 36.623 
Q 785.3675 36.623 785.3675 39.823 
L 785.3675 132.163 
Q 785.3675 135.363 788.5675 135.363 
z
" style="fill:#ffffff;opacity:0.8;stroke:#cccccc;stroke-linejoin:miter;stroke-width:0.48;"/>
    </g>
    <g id="line2d_16"/>
    <g id="line2d_17">
     <g>
      <use style="fill-opacity:0;stroke:#1f77b4;" x="807.7675" xlink:href="#mf889491222" y="49.5805"/>
     </g>
    </g>
    <g id="text_15">
     <!-- L=10 -->
     <defs>
      <path d="M 9.8125 72.90625 
L 19.671875 72.90625 
L 19.671875 8.296875 
L 55.171875 8.296875 
L 55.171875 0 
L 9.8125 0 
z
" id="DejaVuSans-76"/>
      <path d="M 10.59375 45.40625 
L 73.1875 45.40625 
L 73.1875 37.203125 
L 10.59375 37.203125 
z
M 10.59375 25.484375 
L 73.1875 25.484375 
L 73.1875 17.1875 
L 10.59375 17.1875 
z
" id="DejaVuSans-61"/>
     </defs>
     <g transform="translate(836.5675 55.1805)scale(0.16 -0.16)">
      <use xlink:href="#DejaVuSans-76"/>
      <use x="55.712891" xlink:href="#DejaVuSans-61"/>
      <use x="139.501953" xlink:href="#DejaVuSans-49"/>
      <use x="203.125" xlink:href="#DejaVuSans-48"/>
     </g>
    </g>
    <g id="line2d_18"/>
    <g id="line2d_19">
     <g>
      <use style="fill-opacity:0;stroke:#ff7f0e;stroke-linejoin:miter;" x="807.7675" xlink:href="#m958ba371bb" y="73.0655"/>
     </g>
    </g>
    <g id="text_16">
     <!-- L=30 -->
     <defs>
      <path d="M 40.578125 39.3125 
Q 47.65625 37.796875 51.625 33 
Q 55.609375 28.21875 55.609375 21.1875 
Q 55.609375 10.40625 48.1875 4.484375 
Q 40.765625 -1.421875 27.09375 -1.421875 
Q 22.515625 -1.421875 17.65625 -0.515625 
Q 12.796875 0.390625 7.625 2.203125 
L 7.625 11.71875 
Q 11.71875 9.328125 16.59375 8.109375 
Q 21.484375 6.890625 26.8125 6.890625 
Q 36.078125 6.890625 40.9375 10.546875 
Q 45.796875 14.203125 45.796875 21.1875 
Q 45.796875 27.640625 41.28125 31.265625 
Q 36.765625 34.90625 28.71875 34.90625 
L 20.21875 34.90625 
L 20.21875 43.015625 
L 29.109375 43.015625 
Q 36.375 43.015625 40.234375 45.921875 
Q 44.09375 48.828125 44.09375 54.296875 
Q 44.09375 59.90625 40.109375 62.90625 
Q 36.140625 65.921875 28.71875 65.921875 
Q 24.65625 65.921875 20.015625 65.03125 
Q 15.375 64.15625 9.8125 62.3125 
L 9.8125 71.09375 
Q 15.4375 72.65625 20.34375 73.4375 
Q 25.25 74.21875 29.59375 74.21875 
Q 40.828125 74.21875 47.359375 69.109375 
Q 53.90625 64.015625 53.90625 55.328125 
Q 53.90625 49.265625 50.4375 45.09375 
Q 46.96875 40.921875 40.578125 39.3125 
z
" id="DejaVuSans-51"/>
     </defs>
     <g transform="translate(836.5675 78.6655)scale(0.16 -0.16)">
      <use xlink:href="#DejaVuSans-76"/>
      <use x="55.712891" xlink:href="#DejaVuSans-61"/>
      <use x="139.501953" xlink:href="#DejaVuSans-51"/>
      <use x="203.125" xlink:href="#DejaVuSans-48"/>
     </g>
    </g>
    <g id="line2d_20"/>
    <g id="line2d_21">
     <g>
      <use style="fill-opacity:0;stroke:#2ca02c;stroke-linejoin:miter;" x="807.7675" xlink:href="#m0414785fa8" y="96.5505"/>
     </g>
    </g>
    <g id="text_17">
     <!-- L=60 -->
     <g transform="translate(836.5675 102.1505)scale(0.16 -0.16)">
      <use xlink:href="#DejaVuSans-76"/>
      <use x="55.712891" xlink:href="#DejaVuSans-61"/>
      <use x="139.501953" xlink:href="#DejaVuSans-54"/>
      <use x="203.125" xlink:href="#DejaVuSans-48"/>
     </g>
    </g>
    <g id="line2d_22"/>
    <g id="line2d_23">
     <g>
      <use style="fill-opacity:0;stroke:#d62728;stroke-linejoin:miter;" x="807.7675" xlink:href="#m9566b34081" y="120.0355"/>
     </g>
    </g>
    <g id="text_18">
     <!-- L=100 -->
     <g transform="translate(836.5675 125.6355)scale(0.16 -0.16)">
      <use xlink:href="#DejaVuSans-76"/>
      <use x="55.712891" xlink:href="#DejaVuSans-61"/>
      <use x="139.501953" xlink:href="#DejaVuSans-49"/>
      <use x="203.125" xlink:href="#DejaVuSans-48"/>
      <use x="266.748047" xlink:href="#DejaVuSans-48"/>
     </g>
    </g>
   </g>
  </g>
 </g>
 <defs>
  <clipPath id="pd6e6d3b71f">
   <rect height="434.88" width="837" x="66.83" y="28.623"/>
  </clipPath>
 </defs>
</svg>
